<svg width="302" height="38" viewBox="0 0 302 38" fill="none" xmlns="http://www.w3.org/2000/svg">
<path d="M11.82 19H1.78V16.72H3.18V8.28H1.78V6H11.7L12.1 9.8L9.82 10L9.42 8.28H5.86V11.34H11.34V13.6H5.86V16.72H9.54L9.94 15L12.22 15.2L11.82 19ZM23.9755 19H20.1955V17.32C19.9421 17.84 19.5688 18.2867 19.0755 18.66C18.5821 19.02 17.9288 19.2 17.1155 19.2C15.9288 19.2 14.9955 18.7933 14.3155 17.98C13.6355 17.1667 13.2955 16.06 13.2955 14.66C13.2955 13.3133 13.6288 12.1667 14.2955 11.22C14.9621 10.2733 15.9688 9.8 17.3155 9.8C18.0488 9.8 18.6488 9.94667 19.1155 10.24C19.5821 10.5333 19.9421 10.9067 20.1955 11.36V7.2H18.3955V5.24H22.7755V17.06H23.9755V19ZM20.1955 14.44V14.22C20.1955 13.4733 19.9955 12.8933 19.5955 12.48C19.2088 12.0533 18.7221 11.84 18.1355 11.84C17.5621 11.84 17.0555 12.0533 16.6155 12.48C16.1888 12.9067 15.9755 13.58 15.9755 14.5C15.9755 15.3667 16.1755 16.0267 16.5755 16.48C16.9755 16.9333 17.4488 17.16 17.9955 17.16C18.6755 17.16 19.2088 16.8733 19.5955 16.3C19.9955 15.7267 20.1955 15.1067 20.1955 14.44ZM35.6817 19H31.8017V17.62C31.2017 18.66 30.2351 19.18 28.9017 19.18C28.0484 19.18 27.3084 18.9267 26.6817 18.42C26.0551 17.9133 25.7417 17.1267 25.7417 16.06V11.92H24.5417V9.98H28.3217V15.06C28.3217 15.8467 28.4484 16.4067 28.7017 16.74C28.9684 17.06 29.3551 17.22 29.8617 17.22C30.4751 17.22 30.9484 17.02 31.2817 16.62C31.6284 16.22 31.8017 15.7067 31.8017 15.08V11.92H30.3417V9.98H34.3817V17.06H35.6817V19ZM45.0609 15.64C44.9676 16.4667 44.6076 17.2667 43.9809 18.04C43.3676 18.8133 42.3343 19.2 40.8809 19.2C39.5743 19.2 38.4943 18.82 37.6409 18.06C36.8009 17.3 36.3809 16.16 36.3809 14.64C36.3809 13.04 36.8409 11.8333 37.7609 11.02C38.6809 10.2067 39.7943 9.8 41.1009 9.8C41.5943 9.8 42.1209 9.86667 42.6809 10C43.2543 10.12 43.8143 10.3267 44.3609 10.62L44.7609 13.36L42.7009 13.58L42.4009 12.1C41.8809 11.9267 41.4276 11.84 41.0409 11.84C40.4943 11.84 40.0276 12.0533 39.6409 12.48C39.2543 12.8933 39.0609 13.5733 39.0609 14.52C39.0609 16.28 39.7476 17.16 41.1209 17.16C42.1343 17.16 42.7276 16.52 42.9009 15.24L45.0609 15.64ZM46.735 10.62C47.5217 10.3 48.175 10.0867 48.695 9.98C49.2283 9.86 49.8617 9.8 50.595 9.8C51.5683 9.8 52.4083 10.0533 53.115 10.56C53.8217 11.0667 54.175 11.8333 54.175 12.86V16.78C54.175 17.2467 54.3817 17.48 54.795 17.48C54.915 17.48 55.0417 17.46 55.175 17.42L55.195 18.78C54.675 19.06 54.135 19.2 53.575 19.2C52.3883 19.2 51.7283 18.6067 51.595 17.42V17.4C51.3417 17.8533 50.975 18.2667 50.495 18.64C50.0283 19.0133 49.4283 19.2 48.695 19.2C48.0417 19.2 47.415 19.0067 46.815 18.62C46.215 18.2333 45.915 17.5667 45.915 16.62C45.915 15.5133 46.355 14.78 47.235 14.42C48.1283 14.06 49.0883 13.88 50.115 13.88C50.6883 13.88 51.1817 13.9067 51.595 13.96V13.66C51.595 13.1933 51.5283 12.74 51.395 12.3C51.275 11.86 50.8483 11.64 50.115 11.64C49.8483 11.64 49.6017 11.66 49.375 11.7C49.1617 11.7267 48.9483 11.7933 48.735 11.9L48.395 13.18L46.335 12.96L46.735 10.62ZM51.595 15.32V15.2C51.3817 15.1733 51.1617 15.1467 50.935 15.12C50.7217 15.0933 50.5083 15.08 50.295 15.08C49.8417 15.08 49.4417 15.1667 49.095 15.34C48.7483 15.5 48.575 15.8267 48.575 16.32C48.575 16.6133 48.655 16.86 48.815 17.06C48.975 17.26 49.2483 17.36 49.635 17.36C50.0883 17.36 50.5083 17.2 50.895 16.88C51.295 16.5467 51.5283 16.0267 51.595 15.32ZM63.6122 16.2C63.4789 17.24 63.1189 18 62.5322 18.48C61.9455 18.96 61.1855 19.2 60.2522 19.2C59.2522 19.2 58.4389 18.9533 57.8122 18.46C57.1989 17.9533 56.8922 17.2333 56.8922 16.3V11.82H55.6122V9.98H56.8922V7.24H59.4722V9.98H62.7122V11.82H59.4722V15.86C59.4722 16.6467 59.8322 17.04 60.5522 17.04C60.7122 17.04 60.9255 16.9733 61.1922 16.84C61.4722 16.6933 61.6522 16.2867 61.7322 15.62L63.6122 16.2ZM65.2009 8.38V5.7H67.7809V8.38H65.2009ZM69.0809 19H64.1009V17.06H65.3009V11.94H64.0009V9.98H67.8809V17.06H69.0809V19ZM79.4975 14.5C79.4975 15.9267 79.0308 17.0667 78.0975 17.92C77.1642 18.7733 75.9775 19.2 74.5375 19.2C73.1508 19.2 72.0175 18.8 71.1375 18C70.2708 17.1867 69.8375 16.0533 69.8375 14.6C69.8375 13.28 70.2375 12.1467 71.0375 11.2C71.8375 10.2533 73.0508 9.78 74.6775 9.78C76.3042 9.78 77.5108 10.2533 78.2975 11.2C79.0975 12.1333 79.4975 13.2333 79.4975 14.5ZM76.8375 14.42C76.8375 13.5 76.6242 12.8267 76.1975 12.4C75.7708 11.9733 75.2508 11.76 74.6375 11.76C73.9708 11.76 73.4442 12 73.0575 12.48C72.6842 12.9467 72.4975 13.6067 72.4975 14.46C72.4975 15.2333 72.6708 15.8867 73.0175 16.42C73.3775 16.9533 73.9108 17.22 74.6175 17.22C75.2842 17.22 75.8175 16.9733 76.2175 16.48C76.6308 15.9733 76.8375 15.2867 76.8375 14.42ZM91.5263 19H86.5463V17.06H87.7463V13.92C87.7463 13.1467 87.6129 12.5933 87.3463 12.26C87.0929 11.9267 86.7129 11.76 86.2063 11.76C85.5929 11.76 85.1196 11.9533 84.7863 12.34C84.4529 12.7133 84.2796 13.2067 84.2663 13.82V17.06H85.4663V19H80.4863V17.06H81.6863V11.94H80.3863V9.98H84.2663V11.36C84.8663 10.32 85.8329 9.8 87.1663 9.8C88.0196 9.8 88.7596 10.0533 89.3863 10.56C90.0129 11.0667 90.3263 11.8533 90.3263 12.92V17.06H91.5263V19Z" fill="#1F2328"/>
<path d="M1 37H301" stroke="#1F2328" stroke-width="2" stroke-linecap="round"/>
</svg>
