<svg width="302" height="38" viewBox="0 0 302 38" fill="none" xmlns="http://www.w3.org/2000/svg">
<path d="M11.82 19H1.78V16.72H3.18V8.28H1.78V6H11.7L12.1 9.8L9.82 10L9.42 8.28H5.86V11.34H11.34V13.6H5.86V16.72H9.54L9.94 15L12.22 15.2L11.82 19ZM23.3155 19H18.7755V17.06H19.4355L18.1155 15.64L16.8155 17.06H17.3955V19H13.1755V17.06H14.4155L16.8955 14.56L14.1755 11.92H13.2755V9.98H17.8355V11.92H17.2155L18.4355 13.26L19.7355 11.92H19.1355V9.98H23.0555V11.92H22.1555L19.6955 14.28L22.4355 17.06H23.3155V19ZM34.5777 14.28C34.5777 15.6133 34.2243 16.7667 33.5177 17.74C32.8243 18.7133 31.7977 19.2 30.4377 19.2C29.171 19.2 28.251 18.7533 27.6777 17.86V21.26H29.2777V23.26H23.8977V21.26H25.0977V11.92H23.7977V9.98H27.6777V11.7C27.9177 11.18 28.2777 10.7333 28.7577 10.36C29.2377 9.98667 29.891 9.8 30.7177 9.8C31.8643 9.8 32.791 10.1933 33.4977 10.98C34.2177 11.7667 34.5777 12.8667 34.5777 14.28ZM31.8977 14.54C31.8977 13.66 31.6977 12.9933 31.2977 12.54C30.911 12.0733 30.411 11.84 29.7977 11.84C29.131 11.84 28.6177 12.0867 28.2577 12.58C27.911 13.0733 27.7243 13.7 27.6977 14.46L27.6777 14.78C27.6777 15.5133 27.871 16.0933 28.2577 16.52C28.6443 16.9467 29.1577 17.16 29.7977 17.16C30.411 17.16 30.911 16.9467 31.2977 16.52C31.6977 16.0933 31.8977 15.4333 31.8977 14.54ZM44.2834 16.16C44.2168 16.96 43.8234 17.6667 43.1034 18.28C42.3834 18.8933 41.3768 19.2 40.0834 19.2C38.7368 19.2 37.6234 18.82 36.7434 18.06C35.8768 17.3 35.4434 16.1667 35.4434 14.66C35.4434 13.2733 35.8368 12.12 36.6234 11.2C37.4234 10.2667 38.5368 9.8 39.9634 9.8C41.2168 9.8 42.2301 10.16 43.0034 10.88C43.7901 11.6 44.1901 12.5467 44.2034 13.72C44.2034 14.16 44.1568 14.5933 44.0634 15.02H38.1434C38.2901 16.4467 38.9968 17.16 40.2634 17.16C40.9568 17.16 41.4234 16.9933 41.6634 16.66C41.9168 16.3267 42.0701 16.0267 42.1234 15.76L44.2834 16.16ZM41.5434 13.52C41.5968 13.0667 41.4968 12.64 41.2434 12.24C41.0034 11.84 40.5768 11.64 39.9634 11.64C39.4301 11.64 39.0168 11.8133 38.7234 12.16C38.4301 12.5067 38.2434 12.96 38.1634 13.52H41.5434ZM50.9714 9.86C51.2247 9.86 51.5047 9.9 51.8114 9.98C52.1314 10.0467 52.4447 10.1733 52.7514 10.36L53.1514 13.52L51.1914 13.74L50.8514 12.2C50.5847 12.04 50.3514 11.96 50.1514 11.96C49.8581 11.96 49.5981 12.0733 49.3714 12.3C49.1581 12.5267 49.0514 12.86 49.0514 13.3V17.06H50.6514V19H45.2714V17.06H46.4714V11.94H45.1714V9.98H48.8514V11.7C48.9981 11.18 49.2314 10.7467 49.5514 10.4C49.8847 10.04 50.3581 9.86 50.9714 9.86ZM55.2595 8.38V5.7H57.8395V8.38H55.2595ZM59.1395 19H54.1595V17.06H55.3595V11.94H54.0595V9.98H57.9395V17.06H59.1395V19ZM68.7561 16.16C68.6894 16.96 68.2961 17.6667 67.5761 18.28C66.8561 18.8933 65.8494 19.2 64.5561 19.2C63.2094 19.2 62.0961 18.82 61.2161 18.06C60.3494 17.3 59.9161 16.1667 59.9161 14.66C59.9161 13.2733 60.3094 12.12 61.0961 11.2C61.8961 10.2667 63.0094 9.8 64.4361 9.8C65.6894 9.8 66.7028 10.16 67.4761 10.88C68.2628 11.6 68.6628 12.5467 68.6761 13.72C68.6761 14.16 68.6294 14.5933 68.5361 15.02H62.6161C62.7628 16.4467 63.4694 17.16 64.7361 17.16C65.4294 17.16 65.8961 16.9933 66.1361 16.66C66.3894 16.3267 66.5428 16.0267 66.5961 15.76L68.7561 16.16ZM66.0161 13.52C66.0694 13.0667 65.9694 12.64 65.7161 12.24C65.4761 11.84 65.0494 11.64 64.4361 11.64C63.9028 11.64 63.4894 11.8133 63.1961 12.16C62.9028 12.5067 62.7161 12.96 62.6361 13.52H66.0161ZM80.7841 19H75.8041V17.06H77.0041V13.92C77.0041 13.1467 76.8707 12.5933 76.6041 12.26C76.3507 11.9267 75.9707 11.76 75.4641 11.76C74.8507 11.76 74.3774 11.9533 74.0441 12.34C73.7107 12.7133 73.5374 13.2067 73.5241 13.82V17.06H74.7241V19H69.7441V17.06H70.9441V11.94H69.6441V9.98H73.5241V11.36C74.1241 10.32 75.0907 9.8 76.4241 9.8C77.2774 9.8 78.0174 10.0533 78.6441 10.56C79.2707 11.0667 79.5841 11.8533 79.5841 12.92V17.06H80.7841V19ZM90.1195 15.64C90.0262 16.4667 89.6662 17.2667 89.0395 18.04C88.4262 18.8133 87.3929 19.2 85.9395 19.2C84.6329 19.2 83.5529 18.82 82.6995 18.06C81.8595 17.3 81.4395 16.16 81.4395 14.64C81.4395 13.04 81.8995 11.8333 82.8195 11.02C83.7395 10.2067 84.8529 9.8 86.1595 9.8C86.6529 9.8 87.1795 9.86667 87.7395 10C88.3129 10.12 88.8729 10.3267 89.4195 10.62L89.8195 13.36L87.7595 13.58L87.4595 12.1C86.9395 11.9267 86.4862 11.84 86.0995 11.84C85.5529 11.84 85.0862 12.0533 84.6995 12.48C84.3129 12.8933 84.1195 13.5733 84.1195 14.52C84.1195 16.28 84.8062 17.16 86.1795 17.16C87.1929 17.16 87.7862 16.52 87.9595 15.24L90.1195 15.64ZM99.6936 16.16C99.6269 16.96 99.2336 17.6667 98.5136 18.28C97.7936 18.8933 96.7869 19.2 95.4936 19.2C94.1469 19.2 93.0336 18.82 92.1536 18.06C91.2869 17.3 90.8536 16.1667 90.8536 14.66C90.8536 13.2733 91.2469 12.12 92.0336 11.2C92.8336 10.2667 93.9469 9.8 95.3736 9.8C96.6269 9.8 97.6403 10.16 98.4136 10.88C99.2003 11.6 99.6003 12.5467 99.6136 13.72C99.6136 14.16 99.5669 14.5933 99.4736 15.02H93.5536C93.7003 16.4467 94.4069 17.16 95.6736 17.16C96.3669 17.16 96.8336 16.9933 97.0736 16.66C97.3269 16.3267 97.4803 16.0267 97.5336 15.76L99.6936 16.16ZM96.9536 13.52C97.0069 13.0667 96.9069 12.64 96.6536 12.24C96.4136 11.84 95.9869 11.64 95.3736 11.64C94.8403 11.64 94.4269 11.8133 94.1336 12.16C93.8403 12.5067 93.6536 12.96 93.5736 13.52H96.9536ZM108.802 16.24C108.802 17.24 108.402 17.9867 107.602 18.48C106.815 18.96 105.788 19.2 104.522 19.2C103.868 19.2 103.208 19.1333 102.542 19C101.888 18.8533 101.262 18.6267 100.662 18.32L101.022 15.8L103.022 16.02V17.14C103.262 17.22 103.515 17.2733 103.782 17.3C104.048 17.3133 104.248 17.32 104.382 17.32C104.875 17.32 105.302 17.24 105.662 17.08C106.022 16.92 106.202 16.68 106.202 16.36C106.202 15.9733 105.928 15.72 105.382 15.6C104.835 15.48 104.202 15.36 103.482 15.24C102.762 15.12 102.128 14.8733 101.582 14.5C101.035 14.1267 100.762 13.4933 100.762 12.6C100.762 11.4933 101.188 10.7533 102.042 10.38C102.908 9.99333 103.802 9.8 104.722 9.8C105.922 9.8 107.048 10.0733 108.102 10.62L108.322 12.92L106.322 13.14L106.162 11.88C105.722 11.7333 105.248 11.66 104.742 11.66C104.408 11.66 104.122 11.7333 103.882 11.88C103.655 12.0133 103.542 12.2267 103.542 12.52C103.542 12.9067 103.802 13.1667 104.322 13.3C104.855 13.42 105.468 13.54 106.162 13.66C106.868 13.78 107.482 14.0267 108.002 14.4C108.535 14.76 108.802 15.3733 108.802 16.24Z" fill="#1F2328"/>
<path d="M1 37H301" stroke="#1F2328" stroke-width="2" stroke-linecap="round"/>
</svg>
