<svg width="302" height="38" viewBox="0 0 302 38" fill="none" xmlns="http://www.w3.org/2000/svg">
<path d="M1.9375 19V4.45455H12.4205V7.63636H5.88636V10.1364H11.8807V13.3182H5.88636V15.8182H12.392V19H1.9375ZM17.8164 8.09091L19.4073 11.4716L21.0835 8.09091H24.9755L22.0494 13.5455L25.1175 19H21.2539L19.4073 15.5341L17.6175 19H13.6971L16.7937 13.5455L13.896 8.09091H17.8164ZM26.3693 23.0909V8.09091H30.2614V9.99432H30.3466C30.4886 9.625 30.697 9.28646 30.9716 8.97869C31.2462 8.66619 31.5871 8.41761 31.9943 8.23295C32.4015 8.04356 32.875 7.94886 33.4148 7.94886C34.1345 7.94886 34.8187 8.14062 35.4673 8.52415C36.1207 8.90767 36.651 9.51136 37.0582 10.3352C37.4702 11.1591 37.6761 12.2292 37.6761 13.5455C37.6761 14.8049 37.4796 15.849 37.0866 16.6776C36.6984 17.5062 36.1776 18.1241 35.5241 18.5312C34.8755 18.9384 34.1629 19.142 33.3864 19.142C32.875 19.142 32.4181 19.0592 32.0156 18.8935C31.6179 18.723 31.277 18.4934 30.9929 18.2045C30.7135 17.911 30.4981 17.5795 30.3466 17.2102H30.2898V23.0909H26.3693ZM30.2045 13.5455C30.2045 14.0758 30.2732 14.535 30.4105 14.9233C30.5526 15.3068 30.7514 15.6051 31.0071 15.8182C31.2675 16.0265 31.5777 16.1307 31.9375 16.1307C32.2973 16.1307 32.6027 16.0289 32.8537 15.8253C33.1094 15.617 33.3035 15.321 33.4361 14.9375C33.5734 14.5492 33.642 14.0852 33.642 13.5455C33.642 13.0057 33.5734 12.544 33.4361 12.1605C33.3035 11.7723 33.1094 11.4763 32.8537 11.2727C32.6027 11.0644 32.2973 10.9602 31.9375 10.9602C31.5777 10.9602 31.2675 11.0644 31.0071 11.2727C30.7514 11.4763 30.5526 11.7723 30.4105 12.1605C30.2732 12.544 30.2045 13.0057 30.2045 13.5455ZM44.5458 19.1989C43.381 19.1989 42.3772 18.9763 41.5344 18.5312C40.6964 18.0814 40.0501 17.4375 39.5955 16.5994C39.1457 15.7566 38.9208 14.7481 38.9208 13.5739C38.9208 12.447 39.1481 11.4621 39.6026 10.6193C40.0572 9.77651 40.6987 9.12074 41.5273 8.65199C42.3559 8.18324 43.3337 7.94886 44.4606 7.94886C45.2844 7.94886 46.0302 8.0767 46.6978 8.33239C47.3654 8.58807 47.936 8.95975 48.4094 9.44744C48.8829 9.9304 49.2475 10.5175 49.5032 11.2088C49.7589 11.9001 49.8867 12.679 49.8867 13.5455V14.4545H40.1424V12.2955H46.2788C46.274 11.983 46.1935 11.7083 46.0373 11.4716C45.8858 11.2301 45.6798 11.0431 45.4194 10.9105C45.1637 10.7732 44.8725 10.7045 44.5458 10.7045C44.2286 10.7045 43.9374 10.7732 43.6722 10.9105C43.4071 11.0431 43.194 11.2277 43.033 11.4645C42.8768 11.7012 42.7939 11.9782 42.7844 12.2955V14.625C42.7844 14.9754 42.8578 15.2879 43.0046 15.5625C43.1514 15.8371 43.3621 16.0526 43.6367 16.2088C43.9113 16.3651 44.2428 16.4432 44.631 16.4432C44.9009 16.4432 45.1471 16.4053 45.3697 16.3295C45.5969 16.2538 45.7911 16.1449 45.9521 16.0028C46.113 15.8561 46.2314 15.6809 46.3072 15.4773H49.8867C49.7636 16.2348 49.4724 16.893 49.0131 17.4517C48.5539 18.0057 47.9454 18.4366 47.1879 18.7443C46.435 19.0473 45.5543 19.1989 44.5458 19.1989ZM51.4865 19V8.09091H55.2933V10.1648H55.407C55.6058 9.39773 55.9207 8.83665 56.3516 8.48153C56.7872 8.12642 57.2962 7.94886 57.8786 7.94886C58.049 7.94886 58.2171 7.96307 58.3828 7.99148C58.5533 8.01515 58.7166 8.05066 58.8729 8.09801V11.4432C58.6787 11.3769 58.4396 11.3272 58.1555 11.294C57.8714 11.2609 57.6276 11.2443 57.424 11.2443C57.0405 11.2443 56.6948 11.3319 56.3871 11.5071C56.084 11.6776 55.8449 11.919 55.6697 12.2315C55.4946 12.5393 55.407 12.9015 55.407 13.3182V19H51.4865ZM60.1584 19V8.09091H64.0788V19H60.1584ZM62.1186 6.95455C61.5883 6.95455 61.1338 6.77936 60.755 6.42898C60.3762 6.0786 60.1868 5.6572 60.1868 5.16477C60.1868 4.67235 60.3762 4.25095 60.755 3.90057C61.1338 3.55019 61.5883 3.375 62.1186 3.375C62.6536 3.375 63.1082 3.55019 63.4822 3.90057C63.861 4.25095 64.0504 4.67235 64.0504 5.16477C64.0504 5.6572 63.861 6.0786 63.4822 6.42898C63.1082 6.77936 62.6536 6.95455 62.1186 6.95455ZM71.3036 19.1989C70.1388 19.1989 69.1351 18.9763 68.2923 18.5312C67.4542 18.0814 66.8079 17.4375 66.3533 16.5994C65.9035 15.7566 65.6786 14.7481 65.6786 13.5739C65.6786 12.447 65.9059 11.4621 66.3604 10.6193C66.815 9.77651 67.4566 9.12074 68.2852 8.65199C69.1138 8.18324 70.0915 7.94886 71.2184 7.94886C72.0423 7.94886 72.788 8.0767 73.4556 8.33239C74.1232 8.58807 74.6938 8.95975 75.1673 9.44744C75.6407 9.9304 76.0053 10.5175 76.261 11.2088C76.5167 11.9001 76.6445 12.679 76.6445 13.5455V14.4545H66.9002V12.2955H73.0366C73.0318 11.983 72.9513 11.7083 72.7951 11.4716C72.6436 11.2301 72.4376 11.0431 72.1772 10.9105C71.9215 10.7732 71.6303 10.7045 71.3036 10.7045C70.9864 10.7045 70.6952 10.7732 70.43 10.9105C70.1649 11.0431 69.9518 11.2277 69.7908 11.4645C69.6346 11.7012 69.5517 11.9782 69.5423 12.2955V14.625C69.5423 14.9754 69.6156 15.2879 69.7624 15.5625C69.9092 15.8371 70.1199 16.0526 70.3945 16.2088C70.6692 16.3651 71.0006 16.4432 71.3888 16.4432C71.6587 16.4432 71.9049 16.4053 72.1275 16.3295C72.3548 16.2538 72.5489 16.1449 72.7099 16.0028C72.8709 15.8561 72.9892 15.6809 73.065 15.4773H76.6445C76.5214 16.2348 76.2302 16.893 75.771 17.4517C75.3117 18.0057 74.7032 18.4366 73.9457 18.7443C73.1928 19.0473 72.3121 19.1989 71.3036 19.1989ZM82.1648 12.8636V19H78.2443V8.09091H81.9659V10.1648H82.0795C82.3163 9.47348 82.733 8.93134 83.3295 8.53835C83.9309 8.14536 84.6316 7.94886 85.4318 7.94886C86.2036 7.94886 86.8736 8.12642 87.4418 8.48153C88.0147 8.83191 88.4574 9.31487 88.7699 9.9304C89.0871 10.5459 89.2434 11.2491 89.2386 12.0398V19H85.3182V12.8636C85.3229 12.3239 85.1856 11.9001 84.9062 11.5923C84.6316 11.2846 84.2481 11.1307 83.7557 11.1307C83.4337 11.1307 83.152 11.2017 82.9105 11.3438C82.6738 11.4811 82.4915 11.6799 82.3636 11.9403C82.2358 12.196 82.1695 12.5038 82.1648 12.8636ZM96.4297 19.1989C95.246 19.1989 94.2327 18.9645 93.3899 18.4957C92.5471 18.0223 91.9008 17.3641 91.451 16.5213C91.0012 15.6738 90.7763 14.6913 90.7763 13.5739C90.7763 12.4564 91.0012 11.4763 91.451 10.6335C91.9008 9.78598 92.5471 9.12784 93.3899 8.65909C94.2327 8.18561 95.246 7.94886 96.4297 7.94886C97.4998 7.94886 98.4254 8.14299 99.2067 8.53125C99.9927 8.91477 100.601 9.45928 101.032 10.1648C101.463 10.8655 101.681 11.6894 101.685 12.6364H98.049C97.9969 12.0634 97.8312 11.6278 97.5518 11.3295C97.2772 11.0265 96.9221 10.875 96.4865 10.875C96.1456 10.875 95.8473 10.9744 95.5916 11.1733C95.3359 11.3674 95.1371 11.6634 94.995 12.0611C94.853 12.4541 94.782 12.9489 94.782 13.5455C94.782 14.142 94.853 14.6392 94.995 15.0369C95.1371 15.4299 95.3359 15.7259 95.5916 15.9247C95.8473 16.1188 96.1456 16.2159 96.4865 16.2159C96.7753 16.2159 97.031 16.1496 97.2536 16.017C97.4761 15.8797 97.656 15.6809 97.7933 15.4205C97.9354 15.1553 98.0206 14.8333 98.049 14.4545H101.685C101.671 15.4157 101.451 16.2538 101.025 16.9688C100.599 17.679 99.995 18.2282 99.2138 18.6165C98.4373 19.0047 97.5092 19.1989 96.4297 19.1989ZM108.53 19.1989C107.365 19.1989 106.362 18.9763 105.519 18.5312C104.681 18.0814 104.034 17.4375 103.58 16.5994C103.13 15.7566 102.905 14.7481 102.905 13.5739C102.905 12.447 103.132 11.4621 103.587 10.6193C104.042 9.77651 104.683 9.12074 105.512 8.65199C106.34 8.18324 107.318 7.94886 108.445 7.94886C109.269 7.94886 110.015 8.0767 110.682 8.33239C111.35 8.58807 111.92 8.95975 112.394 9.44744C112.867 9.9304 113.232 10.5175 113.488 11.2088C113.743 11.9001 113.871 12.679 113.871 13.5455V14.4545H104.127V12.2955H110.263C110.258 11.983 110.178 11.7083 110.022 11.4716C109.87 11.2301 109.664 11.0431 109.404 10.9105C109.148 10.7732 108.857 10.7045 108.53 10.7045C108.213 10.7045 107.922 10.7732 107.657 10.9105C107.391 11.0431 107.178 11.2277 107.017 11.4645C106.861 11.7012 106.778 11.9782 106.769 12.2955V14.625C106.769 14.9754 106.842 15.2879 106.989 15.5625C107.136 15.8371 107.346 16.0526 107.621 16.2088C107.896 16.3651 108.227 16.4432 108.615 16.4432C108.885 16.4432 109.132 16.4053 109.354 16.3295C109.581 16.2538 109.775 16.1449 109.936 16.0028C110.097 15.8561 110.216 15.6809 110.292 15.4773H113.871C113.748 16.2348 113.457 16.893 112.998 17.4517C112.538 18.0057 111.93 18.4366 111.172 18.7443C110.419 19.0473 109.539 19.1989 108.53 19.1989ZM125.442 11.642H121.835C121.816 11.4195 121.737 11.2277 121.6 11.0668C121.463 10.9058 121.285 10.7827 121.067 10.6974C120.854 10.6075 120.618 10.5625 120.357 10.5625C120.021 10.5625 119.732 10.6241 119.491 10.7472C119.249 10.8703 119.131 11.0455 119.136 11.2727C119.131 11.4337 119.2 11.5829 119.342 11.7202C119.488 11.8575 119.77 11.964 120.187 12.0398L122.403 12.4375C123.52 12.6411 124.351 12.9844 124.896 13.4673C125.445 13.9455 125.722 14.5871 125.727 15.392C125.722 16.1686 125.49 16.8433 125.031 17.4162C124.576 17.9844 123.953 18.4247 123.163 18.7372C122.377 19.045 121.479 19.1989 120.471 19.1989C118.804 19.1989 117.5 18.858 116.558 18.1761C115.62 17.4943 115.097 16.5947 114.988 15.4773H118.88C118.932 15.8229 119.103 16.0904 119.391 16.2798C119.685 16.4645 120.054 16.5568 120.499 16.5568C120.859 16.5568 121.155 16.4953 121.387 16.3722C121.624 16.2491 121.745 16.0739 121.749 15.8466C121.745 15.6383 121.64 15.4725 121.437 15.3494C121.238 15.2263 120.925 15.1269 120.499 15.0511L118.567 14.7102C117.455 14.5161 116.621 14.1468 116.067 13.6023C115.513 13.0578 115.239 12.357 115.244 11.5C115.239 10.7424 115.438 10.1009 115.84 9.57528C116.247 9.04498 116.827 8.64252 117.58 8.3679C118.338 8.08854 119.235 7.94886 120.272 7.94886C121.849 7.94886 123.092 8.27557 124.001 8.92898C124.915 9.58239 125.395 10.4867 125.442 11.642Z" fill="#1F2328"/>
<path d="M1 37H301" stroke="#1F2328" stroke-width="2" stroke-linecap="round"/>
</svg>
