<svg width="302" height="38" viewBox="0 0 302 38" fill="none" xmlns="http://www.w3.org/2000/svg">
<path d="M14.84 8.28H13.68V13.62C13.68 14.54 13.5067 15.4267 13.16 16.28C12.8133 17.1333 12.2333 17.8333 11.42 18.38C10.6067 18.9267 9.50667 19.2 8.12 19.2C6.14667 19.2 4.75333 18.66 3.94 17.58C3.12667 16.4867 2.72 15.24 2.72 13.84V8.28H1.56V6H6.92V8.28H5.4V13.76C5.4 14.6533 5.61333 15.3933 6.04 15.98C6.48 16.5533 7.22 16.84 8.26 16.84C9.28667 16.84 10.0267 16.5467 10.48 15.96C10.9467 15.3733 11.18 14.5933 11.18 13.62V8.28H9.66V6H14.84V8.28ZM25.9253 14.28C25.9253 15.6133 25.572 16.7667 24.8653 17.74C24.172 18.7133 23.1453 19.2 21.7853 19.2C20.5186 19.2 19.5986 18.7533 19.0253 17.86V21.26H20.6253V23.26H15.2453V21.26H16.4453V11.92H15.1453V9.98H19.0253V11.7C19.2653 11.18 19.6253 10.7333 20.1053 10.36C20.5853 9.98667 21.2386 9.8 22.0653 9.8C23.212 9.8 24.1386 10.1933 24.8453 10.98C25.5653 11.7667 25.9253 12.8667 25.9253 14.28ZM23.2453 14.54C23.2453 13.66 23.0453 12.9933 22.6453 12.54C22.2586 12.0733 21.7586 11.84 21.1453 11.84C20.4786 11.84 19.9653 12.0867 19.6053 12.58C19.2586 13.0733 19.072 13.7 19.0453 14.46L19.0253 14.78C19.0253 15.5133 19.2186 16.0933 19.6053 16.52C19.992 16.9467 20.5053 17.16 21.1453 17.16C21.7586 17.16 22.2586 16.9467 22.6453 16.52C23.0453 16.0933 23.2453 15.4333 23.2453 14.54ZM35.4711 15.64C35.3778 16.4667 35.0178 17.2667 34.3911 18.04C33.7778 18.8133 32.7444 19.2 31.2911 19.2C29.9844 19.2 28.9044 18.82 28.0511 18.06C27.2111 17.3 26.7911 16.16 26.7911 14.64C26.7911 13.04 27.2511 11.8333 28.1711 11.02C29.0911 10.2067 30.2044 9.8 31.5111 9.8C32.0044 9.8 32.5311 9.86667 33.0911 10C33.6644 10.12 34.2244 10.3267 34.7711 10.62L35.1711 13.36L33.1111 13.58L32.8111 12.1C32.2911 11.9267 31.8378 11.84 31.4511 11.84C30.9044 11.84 30.4378 12.0533 30.0511 12.48C29.6644 12.8933 29.4711 13.5733 29.4711 14.52C29.4711 16.28 30.1578 17.16 31.5311 17.16C32.5444 17.16 33.1378 16.52 33.3111 15.24L35.4711 15.64ZM45.8452 14.5C45.8452 15.9267 45.3785 17.0667 44.4452 17.92C43.5118 18.7733 42.3252 19.2 40.8852 19.2C39.4985 19.2 38.3652 18.8 37.4852 18C36.6185 17.1867 36.1852 16.0533 36.1852 14.6C36.1852 13.28 36.5852 12.1467 37.3852 11.2C38.1852 10.2533 39.3985 9.78 41.0252 9.78C42.6518 9.78 43.8585 10.2533 44.6452 11.2C45.4452 12.1333 45.8452 13.2333 45.8452 14.5ZM43.1852 14.42C43.1852 13.5 42.9718 12.8267 42.5452 12.4C42.1185 11.9733 41.5985 11.76 40.9852 11.76C40.3185 11.76 39.7918 12 39.4052 12.48C39.0318 12.9467 38.8452 13.6067 38.8452 14.46C38.8452 15.2333 39.0185 15.8867 39.3652 16.42C39.7252 16.9533 40.2585 17.22 40.9652 17.22C41.6318 17.22 42.1652 16.9733 42.5652 16.48C42.9785 15.9733 43.1852 15.2867 43.1852 14.42ZM63.5339 19H59.7539V13.92C59.7539 13.1467 59.6206 12.5933 59.3539 12.26C59.1006 11.9267 58.7206 11.76 58.2139 11.76C57.6006 11.76 57.1539 11.96 56.8739 12.36C56.6072 12.76 56.4739 13.2733 56.4739 13.9V17.06H57.6739V19H53.8939V13.92C53.8939 13.1467 53.7606 12.5933 53.4939 12.26C53.2406 11.9267 52.8606 11.76 52.3539 11.76C51.7272 11.76 51.2806 11.96 51.0139 12.36C50.7472 12.76 50.6139 13.2733 50.6139 13.9V17.06H52.3339V19H46.8339V17.06H48.0339V11.94H46.8539V9.98H50.6139V11.34C51.1872 10.3133 52.1006 9.8 53.3539 9.8C54.0072 9.8 54.6072 9.96 55.1539 10.28C55.7006 10.6 56.0806 11.0867 56.2939 11.74C56.8272 10.4467 57.8072 9.8 59.2339 9.8C60.0472 9.8 60.7672 10.0533 61.3939 10.56C62.0206 11.0667 62.3339 11.8533 62.3339 12.92V17.06H63.5339V19ZM65.5134 8.38V5.7H68.0934V8.38H65.5134ZM69.3934 19H64.4134V17.06H65.6134V11.94H64.3134V9.98H68.1934V17.06H69.3934V19ZM81.37 19H76.39V17.06H77.59V13.92C77.59 13.1467 77.4567 12.5933 77.19 12.26C76.9367 11.9267 76.5567 11.76 76.05 11.76C75.4367 11.76 74.9633 11.9533 74.63 12.34C74.2967 12.7133 74.1233 13.2067 74.11 13.82V17.06H75.31V19H70.33V17.06H71.53V11.94H70.23V9.98H74.11V11.36C74.71 10.32 75.6767 9.8 77.01 9.8C77.8633 9.8 78.6033 10.0533 79.23 10.56C79.8567 11.0667 80.17 11.8533 80.17 12.92V17.06H81.37V19ZM92.7055 11.94H91.5055V18.54C91.5055 19.98 91.0988 21.1533 90.2855 22.06C89.4721 22.98 88.2188 23.44 86.5255 23.44C85.5921 23.44 84.6988 23.2467 83.8455 22.86C82.9921 22.4867 82.3721 21.78 81.9855 20.74L83.9655 19.62C84.6055 20.8067 85.4655 21.4 86.5455 21.4C87.2388 21.4 87.8055 21.1467 88.2455 20.64C88.6988 20.1467 88.9255 19.4467 88.9255 18.54V17.36C88.6855 17.8133 88.3321 18.2 87.8655 18.52C87.3988 18.84 86.7655 19 85.9655 19C84.9121 19 83.9921 18.6333 83.2055 17.9C82.4188 17.1667 82.0255 16.0867 82.0255 14.66C82.0255 13.3133 82.3855 12.1667 83.1055 11.22C83.8255 10.2733 84.8188 9.8 86.0855 9.8C86.7921 9.8 87.3788 9.94667 87.8455 10.24C88.3121 10.5333 88.6721 10.9133 88.9255 11.38V9.98H92.7055V11.94ZM88.9255 14.44V14.22C88.9255 13.4733 88.7321 12.8933 88.3455 12.48C87.9721 12.0533 87.4921 11.84 86.9055 11.84C86.3321 11.84 85.8521 12.0533 85.4655 12.48C85.0921 12.9067 84.9055 13.58 84.9055 14.5C84.9055 15.3667 85.0721 15.9933 85.4055 16.38C85.7521 16.7667 86.1988 16.96 86.7455 16.96C87.4521 16.96 87.9921 16.7067 88.3655 16.2C88.7388 15.6933 88.9255 15.1067 88.9255 14.44ZM107.523 19H97.4831V16.72H98.8831V8.28H97.4831V6H107.403L107.803 9.8L105.523 10L105.123 8.28H101.563V11.34H107.043V13.6H101.563V16.72H105.243L105.643 15L107.923 15.2L107.523 19ZM119.019 19H114.479V17.06H115.139L113.819 15.64L112.519 17.06H113.099V19H108.879V17.06H110.119L112.599 14.56L109.879 11.92H108.979V9.98H113.539V11.92H112.919L114.139 13.26L115.439 11.92H114.839V9.98H118.759V11.92H117.859L115.399 14.28L118.139 17.06H119.019V19ZM130.281 14.28C130.281 15.6133 129.927 16.7667 129.221 17.74C128.527 18.7133 127.501 19.2 126.141 19.2C124.874 19.2 123.954 18.7533 123.381 17.86V21.26H124.981V23.26H119.601V21.26H120.801V11.92H119.501V9.98H123.381V11.7C123.621 11.18 123.981 10.7333 124.461 10.36C124.941 9.98667 125.594 9.8 126.421 9.8C127.567 9.8 128.494 10.1933 129.201 10.98C129.921 11.7667 130.281 12.8667 130.281 14.28ZM127.601 14.54C127.601 13.66 127.401 12.9933 127.001 12.54C126.614 12.0733 126.114 11.84 125.501 11.84C124.834 11.84 124.321 12.0867 123.961 12.58C123.614 13.0733 123.427 13.7 123.401 14.46L123.381 14.78C123.381 15.5133 123.574 16.0933 123.961 16.52C124.347 16.9467 124.861 17.16 125.501 17.16C126.114 17.16 126.614 16.9467 127.001 16.52C127.401 16.0933 127.601 15.4333 127.601 14.54ZM139.987 16.16C139.92 16.96 139.527 17.6667 138.807 18.28C138.087 18.8933 137.08 19.2 135.787 19.2C134.44 19.2 133.327 18.82 132.447 18.06C131.58 17.3 131.147 16.1667 131.147 14.66C131.147 13.2733 131.54 12.12 132.327 11.2C133.127 10.2667 134.24 9.8 135.667 9.8C136.92 9.8 137.933 10.16 138.707 10.88C139.493 11.6 139.893 12.5467 139.907 13.72C139.907 14.16 139.86 14.5933 139.767 15.02H133.847C133.993 16.4467 134.7 17.16 135.967 17.16C136.66 17.16 137.127 16.9933 137.367 16.66C137.62 16.3267 137.773 16.0267 137.827 15.76L139.987 16.16ZM137.247 13.52C137.3 13.0667 137.2 12.64 136.947 12.24C136.707 11.84 136.28 11.64 135.667 11.64C135.133 11.64 134.72 11.8133 134.427 12.16C134.133 12.5067 133.947 12.96 133.867 13.52H137.247ZM146.675 9.86C146.928 9.86 147.208 9.9 147.515 9.98C147.835 10.0467 148.148 10.1733 148.455 10.36L148.855 13.52L146.895 13.74L146.555 12.2C146.288 12.04 146.055 11.96 145.855 11.96C145.561 11.96 145.301 12.0733 145.075 12.3C144.861 12.5267 144.755 12.86 144.755 13.3V17.06H146.355V19H140.975V17.06H142.175V11.94H140.875V9.98H144.555V11.7C144.701 11.18 144.935 10.7467 145.255 10.4C145.588 10.04 146.061 9.86 146.675 9.86ZM150.963 8.38V5.7H153.543V8.38H150.963ZM154.843 19H149.863V17.06H151.063V11.94H149.763V9.98H153.643V17.06H154.843V19ZM164.459 16.16C164.393 16.96 163.999 17.6667 163.279 18.28C162.559 18.8933 161.553 19.2 160.259 19.2C158.913 19.2 157.799 18.82 156.919 18.06C156.053 17.3 155.619 16.1667 155.619 14.66C155.619 13.2733 156.013 12.12 156.799 11.2C157.599 10.2667 158.713 9.8 160.139 9.8C161.393 9.8 162.406 10.16 163.179 10.88C163.966 11.6 164.366 12.5467 164.379 13.72C164.379 14.16 164.333 14.5933 164.239 15.02H158.319C158.466 16.4467 159.173 17.16 160.439 17.16C161.133 17.16 161.599 16.9933 161.839 16.66C162.093 16.3267 162.246 16.0267 162.299 15.76L164.459 16.16ZM161.719 13.52C161.773 13.0667 161.673 12.64 161.419 12.24C161.179 11.84 160.753 11.64 160.139 11.64C159.606 11.64 159.193 11.8133 158.899 12.16C158.606 12.5067 158.419 12.96 158.339 13.52H161.719ZM176.487 19H171.507V17.06H172.707V13.92C172.707 13.1467 172.574 12.5933 172.307 12.26C172.054 11.9267 171.674 11.76 171.167 11.76C170.554 11.76 170.081 11.9533 169.747 12.34C169.414 12.7133 169.241 13.2067 169.227 13.82V17.06H170.427V19H165.447V17.06H166.647V11.94H165.347V9.98H169.227V11.36C169.827 10.32 170.794 9.8 172.127 9.8C172.981 9.8 173.721 10.0533 174.347 10.56C174.974 11.0667 175.287 11.8533 175.287 12.92V17.06H176.487V19ZM185.823 15.64C185.729 16.4667 185.369 17.2667 184.743 18.04C184.129 18.8133 183.096 19.2 181.643 19.2C180.336 19.2 179.256 18.82 178.403 18.06C177.563 17.3 177.143 16.16 177.143 14.64C177.143 13.04 177.603 11.8333 178.523 11.02C179.443 10.2067 180.556 9.8 181.863 9.8C182.356 9.8 182.883 9.86667 183.443 10C184.016 10.12 184.576 10.3267 185.123 10.62L185.523 13.36L183.463 13.58L183.163 12.1C182.643 11.9267 182.189 11.84 181.803 11.84C181.256 11.84 180.789 12.0533 180.403 12.48C180.016 12.8933 179.823 13.5733 179.823 14.52C179.823 16.28 180.509 17.16 181.883 17.16C182.896 17.16 183.489 16.52 183.663 15.24L185.823 15.64ZM195.397 16.16C195.33 16.96 194.937 17.6667 194.217 18.28C193.497 18.8933 192.49 19.2 191.197 19.2C189.85 19.2 188.737 18.82 187.857 18.06C186.99 17.3 186.557 16.1667 186.557 14.66C186.557 13.2733 186.95 12.12 187.737 11.2C188.537 10.2667 189.65 9.8 191.077 9.8C192.33 9.8 193.343 10.16 194.117 10.88C194.903 11.6 195.303 12.5467 195.317 13.72C195.317 14.16 195.27 14.5933 195.177 15.02H189.257C189.403 16.4467 190.11 17.16 191.377 17.16C192.07 17.16 192.537 16.9933 192.777 16.66C193.03 16.3267 193.183 16.0267 193.237 15.76L195.397 16.16ZM192.657 13.52C192.71 13.0667 192.61 12.64 192.357 12.24C192.117 11.84 191.69 11.64 191.077 11.64C190.543 11.64 190.13 11.8133 189.837 12.16C189.543 12.5067 189.357 12.96 189.277 13.52H192.657ZM204.505 16.24C204.505 17.24 204.105 17.9867 203.305 18.48C202.518 18.96 201.491 19.2 200.225 19.2C199.571 19.2 198.911 19.1333 198.245 19C197.591 18.8533 196.965 18.6267 196.365 18.32L196.725 15.8L198.725 16.02V17.14C198.965 17.22 199.218 17.2733 199.485 17.3C199.751 17.3133 199.951 17.32 200.085 17.32C200.578 17.32 201.005 17.24 201.365 17.08C201.725 16.92 201.905 16.68 201.905 16.36C201.905 15.9733 201.631 15.72 201.085 15.6C200.538 15.48 199.905 15.36 199.185 15.24C198.465 15.12 197.831 14.8733 197.285 14.5C196.738 14.1267 196.465 13.4933 196.465 12.6C196.465 11.4933 196.891 10.7533 197.745 10.38C198.611 9.99333 199.505 9.8 200.425 9.8C201.625 9.8 202.751 10.0733 203.805 10.62L204.025 12.92L202.025 13.14L201.865 11.88C201.425 11.7333 200.951 11.66 200.445 11.66C200.111 11.66 199.825 11.7333 199.585 11.88C199.358 12.0133 199.245 12.2267 199.245 12.52C199.245 12.9067 199.505 13.1667 200.025 13.3C200.558 13.42 201.171 13.54 201.865 13.66C202.571 13.78 203.185 14.0267 203.705 14.4C204.238 14.76 204.505 15.3733 204.505 16.24Z" fill="#272727"/>
<path d="M1 37H301" stroke="black" stroke-width="2" stroke-linecap="round"/>
</svg>
