<svg width="110" height="63" viewBox="0 0 110 63" fill="none" xmlns="http://www.w3.org/2000/svg">
<path d="M110 62.2925L83.6536 0.104248H45.0551V3.33914H81.5815L104.954 58.5079L3.15792 47.7599V40.4H0V50.6784L110 62.2925Z" fill="#C1F400"/>
<path d="M6.34045 4.0739C6.71949 3.90535 7.04491 3.66543 7.27224 3.33912C7.48078 3.03911 7.60774 2.66585 7.60774 2.19917C7.60774 1.5982 7.40836 1.15311 7.07974 0.816943C6.70803 0.435705 6.18416 0.195318 5.49024 0.103765C5.28674 0.0774725 5.07316 0.0596313 4.83895 0.0596313H4.48649H0.625488V0.103765V8.47363H3.15778H4.86232C6.8217 8.47363 7.97166 7.59613 7.97166 6.15381C7.97166 5.92704 7.94095 5.72844 7.89511 5.54392C7.70445 4.77863 7.14391 4.34574 6.34045 4.0739ZM4.80595 3.33912C4.71245 3.36729 4.60245 3.38232 4.48649 3.39265C4.41545 3.39922 4.35495 3.41378 4.27566 3.41378H3.15778H2.84336V1.93483H4.32195C4.38382 1.93483 4.4292 1.94845 4.48603 1.95268C5.04932 1.99634 5.35457 2.24142 5.35457 2.65599C5.35457 3.01704 5.15566 3.23536 4.80595 3.33912ZM4.60336 6.5989H3.15778H2.84336V5.04812H3.15778H4.48603H4.57999C5.1827 5.04812 5.51957 5.24015 5.63874 5.54439C5.67036 5.62514 5.69511 5.70965 5.69511 5.80543C5.69511 6.32236 5.29591 6.5989 4.60336 6.5989Z" fill="black"/>
<path d="M11.2949 8.47412V5.92565H12.2922L13.9468 8.47412H16.5749L14.6178 5.54394L14.6155 5.54112C15.5308 5.14251 16.1587 4.41243 16.2801 3.33961C16.2939 3.21566 16.3054 3.08984 16.3054 2.9565C16.3054 2.10388 16.0588 1.45455 15.578 0.961569C15.1265 0.499107 14.4482 0.201441 13.5329 0.104723C13.3303 0.0831254 13.13 0.0601196 12.9022 0.0601196H10.1976H9.01831V0.104723V3.33961V5.54394V8.47412H10.1976H11.2949ZM14.0174 3.07669C14.0174 3.17012 14.005 3.25698 13.9857 3.33961C13.8757 3.8171 13.4573 4.09927 12.7968 4.09927H11.2944V3.33961V2.07899H12.7844C13.548 2.07899 14.0174 2.41516 14.0174 3.07669Z" fill="black"/>
<path d="M24.1231 6.49091H19.7102V5.54392V5.15611H23.6533V3.33912V3.31706H19.7102V2.04282H24.0639V0.104234V0.0596313H17.4575V0.104234V3.33912V5.54392V8.4741H24.1231V6.49091Z" fill="black"/>
<path d="M27.6099 6.97121H30.7779L31.3765 8.4741H33.8171L32.608 5.54438L31.6982 3.33959L30.3636 0.1047L30.3205 0H28.1255L28.0824 0.1047L26.7478 3.33959L25.838 5.54438L24.6289 8.4741H27.0228L27.6099 6.97121ZM29.2054 2.76398L29.4254 3.33912L30.1207 5.1561H28.2786L28.9822 3.33912L29.2054 2.76398Z" fill="black"/>
<path d="M36.894 6.29843L37.5558 5.54394L37.7273 5.34862L37.8565 5.54394L39.7925 8.47412H42.5269L40.5625 5.54394L39.3117 3.67813L39.6032 3.33914L42.383 0.104253L42.421 0.0601196H39.7219L39.6857 0.104253L37.0054 3.33914L36.894 3.47342V3.33914V0.104253V0.0601196H34.6179V0.104253V3.33914V5.54394V8.47412H36.894V6.29843Z" fill="black"/>
<path d="M0.168213 14.0227V16.0665H2.63221V22.4372H3.15792H4.90876V16.0665H7.37276V14.0227H3.15792H0.168213Z" fill="black"/>
<path d="M13.5707 17.1722H10.6489V14.0232H10.1969H8.37231V22.4377H10.1969H10.6489V19.2399H13.5707V22.4377H15.8468V14.0232H13.5707V17.1722Z" fill="black"/>
<path d="M19.581 19.8887H20.5783L22.2329 22.4372H24.8614L22.9016 19.5042C23.9228 19.0591 24.5915 18.206 24.5915 16.9196C24.5915 16.0669 24.3449 15.4172 23.8641 14.9242C23.3127 14.3594 22.4442 14.0232 21.1884 14.0232H17.3044V22.4372H19.581V19.8887ZM19.581 16.0421H21.071C21.8337 16.0421 22.303 16.3787 22.303 17.0398C22.303 17.6774 21.8571 18.0619 21.0825 18.0619H19.5805L19.581 16.0421Z" fill="black"/>
<path d="M29.8979 13.8542C27.3633 13.8542 25.4622 15.8139 25.4622 18.2299C25.4622 20.6704 27.3399 22.6062 29.8741 22.6062C32.4091 22.6062 34.3103 20.6465 34.3103 18.2299C34.3103 15.7899 32.4325 13.8542 29.8979 13.8542ZM29.8979 20.5014C28.654 20.5014 27.7974 19.4441 27.7974 18.2295C27.7974 16.9919 28.6306 15.9575 29.8741 15.9575C31.1299 15.9575 31.9865 17.0158 31.9865 18.2295C31.9865 19.468 31.1533 20.5014 29.8979 20.5014Z" fill="black"/>
<path d="M40.7317 18.7591C40.7317 19.9366 40.1336 20.4902 39.2183 20.4902C38.3035 20.4902 37.7049 19.9127 37.7049 18.699V14.0232H35.3926V18.7474C35.3926 21.3794 36.8597 22.5935 39.1949 22.5935C41.5297 22.5935 43.0435 21.4038 43.0435 18.6868V14.0232H40.7317V18.7591Z" fill="black"/>
<path d="M48.3728 19.2276H49.9921V20.2498C49.6525 20.4779 49.2299 20.5981 48.6781 20.5981C47.3755 20.5981 46.4487 19.6239 46.4487 18.2656C46.4487 16.9557 47.3636 15.9336 48.5488 15.9336C49.3587 15.9336 49.9454 16.2228 50.532 16.7271L51.8704 15.08C51.0018 14.311 49.9811 13.8542 48.5378 13.8542C45.9913 13.8542 44.1135 15.7772 44.1135 18.2299C44.1135 20.8028 46.0262 22.6057 48.5841 22.6057C50.0751 22.6057 51.2832 22.0404 52.1518 21.3071V17.521H48.3728V19.2276Z" fill="black"/>
<path d="M58.6196 14.0227V17.1721H55.6977V14.0227H53.4211V22.4372H55.6977V19.2398H58.6196V22.4372H60.8961V14.0227H58.6196Z" fill="black"/>
<path d="M0.168213 27.9862V30.03H2.63221V36.4002H3.15792H4.90876V30.03H7.37276V27.9862H3.15792H0.168213Z" fill="black"/>
<path d="M10.6255 33.0827H14.5681V31.2437H10.6255V29.9694H14.9787V27.9862H10.1974H8.37231V36.4002H10.1974H15.0374V34.4175H10.6255V33.0827Z" fill="black"/>
<path d="M20.2262 34.441C19.0767 34.441 18.2663 33.4555 18.2663 32.1926C18.2663 30.9432 19.0762 29.9451 20.2262 29.9451C21.0122 29.9451 21.5641 30.3174 22.0334 30.9193L23.6999 29.5967C22.9721 28.5628 21.928 27.8173 20.25 27.8173C17.7622 27.8173 15.9197 29.7404 15.9197 32.1926C15.9197 34.7288 17.8089 36.5688 20.1556 36.5688C21.9747 36.5688 23.0188 35.7641 23.7934 34.6697L22.0797 33.4189C21.587 34.033 21.0828 34.441 20.2262 34.441Z" fill="black"/>
<path d="M29.9682 31.1352H27.0463V27.9862H24.7698V36.4007H27.0463V33.2029H29.9682V36.4007H32.2447V27.9862H29.9682V31.1352Z" fill="black"/>
</svg>
