<svg width="771" height="140" viewBox="0 0 771 140" fill="none" xmlns="http://www.w3.org/2000/svg">
<path d="M22.8835 82.0994C22.6089 81.2377 22.2396 80.4659 21.7756 79.7841C21.321 79.0928 20.7765 78.5057 20.142 78.0227C19.5076 77.5303 18.7831 77.1562 17.9688 76.9006C17.1638 76.6449 16.2784 76.517 15.3125 76.517C13.6742 76.517 12.197 76.9384 10.8807 77.7812C9.56439 78.6241 8.52273 79.8598 7.75568 81.4886C6.99811 83.108 6.61932 85.0919 6.61932 87.4403C6.61932 89.7983 7.00284 91.7917 7.76989 93.4205C8.53693 95.0492 9.58807 96.285 10.9233 97.1278C12.2585 97.9706 13.7784 98.392 15.483 98.392C17.0644 98.392 18.4422 98.0701 19.6165 97.4261C20.8002 96.7822 21.714 95.8731 22.358 94.6989C23.0114 93.5152 23.3381 92.1231 23.3381 90.5227L24.4744 90.7358H16.1506V87.1136H27.5852V90.4233C27.5852 92.8665 27.0644 94.9877 26.0227 96.7869C24.9905 98.5767 23.5606 99.9593 21.733 100.935C19.9148 101.91 17.8314 102.398 15.483 102.398C12.8504 102.398 10.5398 101.792 8.55114 100.58C6.57197 99.3674 5.02841 97.6487 3.92045 95.4233C2.8125 93.1884 2.25852 90.5369 2.25852 87.4688C2.25852 85.1487 2.58049 83.0653 3.22443 81.2188C3.86837 79.3722 4.77273 77.8049 5.9375 76.517C7.11174 75.2197 8.48958 74.2301 10.071 73.5483C11.6619 72.857 13.3996 72.5114 15.2841 72.5114C16.8561 72.5114 18.3191 72.7434 19.6733 73.2074C21.0369 73.6714 22.2491 74.3295 23.3097 75.1818C24.3797 76.0341 25.2652 77.0473 25.9659 78.2216C26.6667 79.3864 27.1402 80.679 27.3864 82.0994H22.8835ZM32.8161 102V80.1818H36.9212V83.6477H37.1484C37.5462 82.4735 38.2469 81.5502 39.2507 80.8778C40.264 80.196 41.4098 79.8551 42.6882 79.8551C42.9534 79.8551 43.2659 79.8646 43.6257 79.8835C43.995 79.9025 44.2839 79.9261 44.4922 79.9545V84.017C44.3217 83.9697 44.0187 83.9176 43.5831 83.8608C43.1475 83.7945 42.7119 83.7614 42.2763 83.7614C41.2725 83.7614 40.3776 83.9744 39.5916 84.4006C38.8151 84.8172 38.1996 85.3996 37.745 86.1477C37.2905 86.8864 37.0632 87.7292 37.0632 88.6761V102H32.8161ZM54.3217 102.483C52.9392 102.483 51.6892 102.227 50.5717 101.716C49.4543 101.195 48.5689 100.442 47.9155 99.4574C47.2715 98.4725 46.9496 97.2652 46.9496 95.8352C46.9496 94.6042 47.1863 93.5909 47.6598 92.7955C48.1333 92 48.7725 91.3703 49.5774 90.9062C50.3823 90.4422 51.282 90.0919 52.2763 89.8551C53.2706 89.6184 54.2839 89.4384 55.3161 89.3153C56.6229 89.1638 57.6835 89.0407 58.4979 88.946C59.3123 88.8419 59.9041 88.6761 60.2734 88.4489C60.6428 88.2216 60.8274 87.8523 60.8274 87.3409V87.2415C60.8274 86.0009 60.477 85.0398 59.7763 84.358C59.085 83.6761 58.0528 83.3352 56.6797 83.3352C55.2498 83.3352 54.1229 83.6525 53.299 84.2869C52.4846 84.9119 51.9212 85.608 51.6087 86.375L47.6172 85.4659C48.0907 84.1402 48.782 83.0701 49.6911 82.2557C50.6096 81.4318 51.6655 80.8352 52.8587 80.4659C54.0518 80.0871 55.3066 79.8977 56.6229 79.8977C57.4941 79.8977 58.4174 80.0019 59.3928 80.2102C60.3776 80.4091 61.2962 80.7784 62.1484 81.3182C63.0102 81.858 63.7157 82.6297 64.2649 83.6335C64.8142 84.6278 65.0888 85.9205 65.0888 87.5114V102H60.9411V99.017H60.7706C60.496 99.5663 60.084 100.106 59.5348 100.636C58.9856 101.167 58.2801 101.607 57.4183 101.957C56.5566 102.308 55.5244 102.483 54.3217 102.483ZM55.245 99.0739C56.4193 99.0739 57.4231 98.8419 58.2564 98.3778C59.0992 97.9138 59.7384 97.3078 60.174 96.5597C60.6191 95.8021 60.8416 94.9924 60.8416 94.1307V91.3182C60.6901 91.4697 60.3965 91.6117 59.9609 91.7443C59.5348 91.8674 59.0471 91.9763 58.4979 92.071C57.9486 92.1562 57.4136 92.2367 56.8928 92.3125C56.3719 92.3788 55.9363 92.4356 55.5859 92.483C54.7621 92.5871 54.0092 92.7623 53.3274 93.0085C52.6551 93.2547 52.1153 93.6098 51.7081 94.0739C51.3104 94.5284 51.1115 95.1345 51.1115 95.892C51.1115 96.9432 51.4998 97.7386 52.2763 98.2784C53.0528 98.8087 54.0424 99.0739 55.245 99.0739ZM78.9134 102.426C77.152 102.426 75.58 101.976 74.1974 101.077C72.8243 100.168 71.7448 98.875 70.9588 97.1989C70.1823 95.5133 69.794 93.4915 69.794 91.1335C69.794 88.7756 70.187 86.7585 70.973 85.0824C71.7685 83.4062 72.8575 82.1231 74.2401 81.233C75.6226 80.3428 77.1899 79.8977 78.9418 79.8977C80.2959 79.8977 81.3849 80.125 82.2088 80.5795C83.0421 81.0246 83.6861 81.5455 84.1406 82.142C84.6046 82.7386 84.9645 83.2642 85.2202 83.7188H85.4759V72.9091H89.723V102H85.5753V98.6051H85.2202C84.9645 99.0691 84.5952 99.5994 84.1122 100.196C83.6387 100.793 82.9853 101.313 82.152 101.759C81.3187 102.204 80.2391 102.426 78.9134 102.426ZM79.8509 98.804C81.0724 98.804 82.1046 98.482 82.9474 97.8381C83.7997 97.1847 84.4437 96.2803 84.8793 95.125C85.3243 93.9697 85.5469 92.625 85.5469 91.0909C85.5469 89.5758 85.3291 88.25 84.8935 87.1136C84.4579 85.9773 83.8187 85.0919 82.9759 84.4574C82.133 83.8229 81.0914 83.5057 79.8509 83.5057C78.5724 83.5057 77.5071 83.8371 76.6548 84.5C75.8026 85.1629 75.1586 86.0672 74.723 87.2131C74.2969 88.3589 74.0838 89.6515 74.0838 91.0909C74.0838 92.5492 74.3016 93.8608 74.7372 95.0256C75.1728 96.1903 75.8168 97.1136 76.669 97.7955C77.5308 98.4678 78.5914 98.804 79.8509 98.804ZM109.606 92.9517V80.1818H113.867V102H109.691V98.2216H109.464C108.962 99.3864 108.157 100.357 107.049 101.134C105.951 101.901 104.582 102.284 102.944 102.284C101.542 102.284 100.302 101.976 99.2223 101.361C98.1522 100.736 97.3094 99.8125 96.6939 98.5909C96.0878 97.3693 95.7848 95.8589 95.7848 94.0597V80.1818H100.032V93.5483C100.032 95.035 100.444 96.2187 101.268 97.0994C102.092 97.9801 103.162 98.4205 104.478 98.4205C105.273 98.4205 106.064 98.2216 106.85 97.8239C107.646 97.4261 108.304 96.8248 108.825 96.0199C109.355 95.215 109.615 94.1922 109.606 92.9517ZM125.923 102.483C124.541 102.483 123.291 102.227 122.173 101.716C121.056 101.195 120.17 100.442 119.517 99.4574C118.873 98.4725 118.551 97.2652 118.551 95.8352C118.551 94.6042 118.788 93.5909 119.261 92.7955C119.735 92 120.374 91.3703 121.179 90.9062C121.984 90.4422 122.884 90.0919 123.878 89.8551C124.872 89.6184 125.885 89.4384 126.918 89.3153C128.224 89.1638 129.285 89.0407 130.099 88.946C130.914 88.8419 131.506 88.6761 131.875 88.4489C132.244 88.2216 132.429 87.8523 132.429 87.3409V87.2415C132.429 86.0009 132.079 85.0398 131.378 84.358C130.687 83.6761 129.654 83.3352 128.281 83.3352C126.851 83.3352 125.724 83.6525 124.901 84.2869C124.086 84.9119 123.523 85.608 123.21 86.375L119.219 85.4659C119.692 84.1402 120.384 83.0701 121.293 82.2557C122.211 81.4318 123.267 80.8352 124.46 80.4659C125.653 80.0871 126.908 79.8977 128.224 79.8977C129.096 79.8977 130.019 80.0019 130.994 80.2102C131.979 80.4091 132.898 80.7784 133.75 81.3182C134.612 81.858 135.317 82.6297 135.866 83.6335C136.416 84.6278 136.69 85.9205 136.69 87.5114V102H132.543V99.017H132.372C132.098 99.5663 131.686 100.106 131.136 100.636C130.587 101.167 129.882 101.607 129.02 101.957C128.158 102.308 127.126 102.483 125.923 102.483ZM126.847 99.0739C128.021 99.0739 129.025 98.8419 129.858 98.3778C130.701 97.9138 131.34 97.3078 131.776 96.5597C132.221 95.8021 132.443 94.9924 132.443 94.1307V91.3182C132.292 91.4697 131.998 91.6117 131.562 91.7443C131.136 91.8674 130.649 91.9763 130.099 92.071C129.55 92.1562 129.015 92.2367 128.494 92.3125C127.973 92.3788 127.538 92.4356 127.188 92.483C126.364 92.5871 125.611 92.7623 124.929 93.0085C124.257 93.2547 123.717 93.6098 123.31 94.0739C122.912 94.5284 122.713 95.1345 122.713 95.892C122.713 96.9432 123.101 97.7386 123.878 98.2784C124.654 98.8087 125.644 99.0739 126.847 99.0739ZM152.532 80.1818V83.5909H140.614V80.1818H152.532ZM143.81 74.9545H148.058V95.5938C148.058 96.4176 148.181 97.0379 148.427 97.4545C148.673 97.8617 148.99 98.1411 149.379 98.2926C149.776 98.4347 150.207 98.5057 150.671 98.5057C151.012 98.5057 151.31 98.482 151.566 98.4347C151.822 98.3873 152.021 98.3494 152.163 98.321L152.93 101.83C152.683 101.924 152.333 102.019 151.879 102.114C151.424 102.218 150.856 102.275 150.174 102.284C149.057 102.303 148.015 102.104 147.049 101.688C146.083 101.271 145.302 100.627 144.705 99.7557C144.109 98.8845 143.81 97.7907 143.81 96.4744V74.9545ZM157.23 102V80.1818H161.477V102H157.23ZM159.375 76.8153C158.636 76.8153 158.002 76.5691 157.472 76.0767C156.951 75.5748 156.69 74.9782 156.69 74.2869C156.69 73.5862 156.951 72.9896 157.472 72.4972C158.002 71.9953 158.636 71.7443 159.375 71.7443C160.114 71.7443 160.743 71.9953 161.264 72.4972C161.795 72.9896 162.06 73.5862 162.06 74.2869C162.06 74.9782 161.795 75.5748 161.264 76.0767C160.743 76.5691 160.114 76.8153 159.375 76.8153ZM171.438 89.0455V102H167.191V80.1818H171.268V83.733H171.538C172.04 82.5777 172.826 81.6496 173.896 80.9489C174.975 80.2481 176.334 79.8977 177.972 79.8977C179.459 79.8977 180.761 80.2102 181.879 80.8352C182.996 81.4508 183.862 82.3693 184.478 83.5909C185.094 84.8125 185.401 86.3229 185.401 88.1222V102H181.154V88.6335C181.154 87.0521 180.742 85.8163 179.918 84.9261C179.094 84.0265 177.963 83.5767 176.523 83.5767C175.539 83.5767 174.663 83.7898 173.896 84.2159C173.138 84.642 172.537 85.267 172.092 86.0909C171.656 86.9053 171.438 87.8902 171.438 89.0455ZM200.245 110.636C198.512 110.636 197.021 110.409 195.771 109.955C194.53 109.5 193.517 108.899 192.731 108.151C191.945 107.402 191.358 106.583 190.969 105.693L194.62 104.188C194.876 104.604 195.217 105.045 195.643 105.509C196.078 105.982 196.665 106.384 197.404 106.716C198.152 107.047 199.113 107.213 200.288 107.213C201.897 107.213 203.228 106.82 204.279 106.034C205.33 105.258 205.856 104.017 205.856 102.312V98.0227H205.586C205.33 98.4867 204.961 99.0028 204.478 99.571C204.004 100.139 203.351 100.632 202.518 101.048C201.684 101.465 200.6 101.673 199.265 101.673C197.541 101.673 195.988 101.271 194.606 100.466C193.233 99.6515 192.144 98.4536 191.339 96.8722C190.543 95.2812 190.146 93.3258 190.146 91.0057C190.146 88.6856 190.539 86.697 191.325 85.0398C192.12 83.3826 193.209 82.1136 194.592 81.233C195.974 80.3428 197.541 79.8977 199.293 79.8977C200.647 79.8977 201.741 80.125 202.575 80.5795C203.408 81.0246 204.057 81.5455 204.521 82.142C204.994 82.7386 205.359 83.2642 205.614 83.7188H205.927V80.1818H210.089V102.483C210.089 104.358 209.653 105.897 208.782 107.099C207.911 108.302 206.732 109.192 205.245 109.77C203.768 110.348 202.101 110.636 200.245 110.636ZM200.202 98.1506C201.424 98.1506 202.456 97.8665 203.299 97.2983C204.151 96.7206 204.795 95.8968 205.231 94.8267C205.676 93.7472 205.898 92.4545 205.898 90.9489C205.898 89.4811 205.681 88.1884 205.245 87.071C204.809 85.9536 204.17 85.0824 203.327 84.4574C202.485 83.8229 201.443 83.5057 200.202 83.5057C198.924 83.5057 197.859 83.8371 197.006 84.5C196.154 85.1534 195.51 86.0436 195.075 87.1705C194.648 88.2973 194.435 89.5568 194.435 90.9489C194.435 92.3788 194.653 93.6335 195.089 94.7131C195.524 95.7926 196.168 96.6354 197.021 97.2415C197.882 97.8475 198.943 98.1506 200.202 98.1506ZM236.129 102H226.712V72.9091H236.428C239.278 72.9091 241.726 73.4915 243.771 74.6562C245.817 75.8116 247.384 77.4735 248.473 79.642C249.571 81.8011 250.121 84.3911 250.121 87.4119C250.121 90.4422 249.567 93.0464 248.459 95.2244C247.36 97.4025 245.769 99.0786 243.686 100.253C241.603 101.418 239.084 102 236.129 102ZM231.101 98.1648H235.888C238.104 98.1648 239.946 97.7481 241.413 96.9148C242.881 96.072 243.98 94.8551 244.709 93.2642C245.438 91.6638 245.803 89.7131 245.803 87.4119C245.803 85.1297 245.438 83.1932 244.709 81.6023C243.989 80.0114 242.914 78.804 241.484 77.9801C240.054 77.1562 238.279 76.7443 236.158 76.7443H231.101V98.1648ZM264.641 102.44C262.492 102.44 260.64 101.981 259.087 101.062C257.544 100.134 256.351 98.8324 255.508 97.1562C254.674 95.4706 254.258 93.4962 254.258 91.233C254.258 88.9981 254.674 87.0284 255.508 85.3239C256.351 83.6193 257.525 82.2888 259.031 81.3324C260.546 80.3759 262.317 79.8977 264.343 79.8977C265.574 79.8977 266.767 80.1013 267.923 80.5085C269.078 80.9157 270.115 81.5549 271.033 82.4261C271.952 83.2973 272.676 84.429 273.207 85.821C273.737 87.2036 274.002 88.8845 274.002 90.8636V92.3693H256.658V89.1875H269.84C269.84 88.0701 269.613 87.0805 269.158 86.2188C268.704 85.3475 268.065 84.661 267.241 84.1591C266.426 83.6572 265.47 83.4062 264.371 83.4062C263.178 83.4062 262.137 83.6998 261.246 84.2869C260.366 84.8646 259.684 85.6222 259.201 86.5597C258.728 87.4877 258.491 88.4962 258.491 89.5852V92.071C258.491 93.5294 258.746 94.7699 259.258 95.7926C259.779 96.8153 260.503 97.5966 261.431 98.1364C262.359 98.6667 263.443 98.9318 264.684 98.9318C265.489 98.9318 266.223 98.8182 266.886 98.5909C267.549 98.3542 268.121 98.0038 268.604 97.5398C269.087 97.0758 269.457 96.5028 269.712 95.821L273.732 96.5455C273.41 97.7292 272.833 98.7661 271.999 99.6562C271.175 100.537 270.138 101.223 268.888 101.716C267.648 102.199 266.232 102.44 264.641 102.44ZM287.905 102.44C285.793 102.44 283.975 101.962 282.45 101.006C280.935 100.04 279.77 98.7093 278.956 97.0142C278.142 95.3191 277.734 93.3778 277.734 91.1903C277.734 88.9744 278.151 87.0189 278.984 85.3239C279.818 83.6193 280.992 82.2888 282.507 81.3324C284.022 80.3759 285.807 79.8977 287.862 79.8977C289.519 79.8977 290.997 80.2055 292.294 80.821C293.591 81.4271 294.638 82.2794 295.433 83.3778C296.238 84.4763 296.716 85.7595 296.868 87.2273H292.734C292.507 86.2045 291.986 85.3239 291.172 84.5852C290.367 83.8466 289.287 83.4773 287.933 83.4773C286.75 83.4773 285.713 83.7898 284.822 84.4148C283.942 85.0303 283.255 85.911 282.763 87.0568C282.27 88.1932 282.024 89.5379 282.024 91.0909C282.024 92.6818 282.266 94.0549 282.749 95.2102C283.232 96.3655 283.913 97.2604 284.794 97.8949C285.684 98.5294 286.731 98.8466 287.933 98.8466C288.738 98.8466 289.467 98.6998 290.121 98.4062C290.784 98.1032 291.338 97.6723 291.783 97.1136C292.237 96.5549 292.554 95.8826 292.734 95.0966H296.868C296.716 96.5076 296.257 97.767 295.49 98.875C294.723 99.983 293.696 100.854 292.408 101.489C291.129 102.123 289.628 102.44 287.905 102.44ZM310.813 102.44C308.664 102.44 306.812 101.981 305.259 101.062C303.716 100.134 302.522 98.8324 301.68 97.1562C300.846 95.4706 300.43 93.4962 300.43 91.233C300.43 88.9981 300.846 87.0284 301.68 85.3239C302.522 83.6193 303.697 82.2888 305.202 81.3324C306.718 80.3759 308.488 79.8977 310.515 79.8977C311.746 79.8977 312.939 80.1013 314.094 80.5085C315.25 80.9157 316.287 81.5549 317.205 82.4261C318.124 83.2973 318.848 84.429 319.379 85.821C319.909 87.2036 320.174 88.8845 320.174 90.8636V92.3693H302.83V89.1875H316.012C316.012 88.0701 315.785 87.0805 315.33 86.2188C314.876 85.3475 314.237 84.661 313.413 84.1591C312.598 83.6572 311.642 83.4062 310.543 83.4062C309.35 83.4062 308.308 83.6998 307.418 84.2869C306.538 84.8646 305.856 85.6222 305.373 86.5597C304.899 87.4877 304.663 88.4962 304.663 89.5852V92.071C304.663 93.5294 304.918 94.7699 305.43 95.7926C305.951 96.8153 306.675 97.5966 307.603 98.1364C308.531 98.6667 309.615 98.9318 310.856 98.9318C311.661 98.9318 312.395 98.8182 313.058 98.5909C313.72 98.3542 314.293 98.0038 314.776 97.5398C315.259 97.0758 315.629 96.5028 315.884 95.821L319.904 96.5455C319.582 97.7292 319.004 98.7661 318.171 99.6562C317.347 100.537 316.31 101.223 315.06 101.716C313.82 102.199 312.404 102.44 310.813 102.44ZM324.886 102V80.1818H328.963V83.733H329.233C329.688 82.5303 330.431 81.5928 331.463 80.9205C332.495 80.2386 333.731 79.8977 335.17 79.8977C336.629 79.8977 337.85 80.2386 338.835 80.9205C339.83 81.6023 340.563 82.5398 341.037 83.733H341.264C341.785 82.5682 342.614 81.6402 343.75 80.9489C344.886 80.2481 346.241 79.8977 347.812 79.8977C349.792 79.8977 351.406 80.518 352.656 81.7585C353.916 82.9991 354.545 84.8693 354.545 87.3693V102H350.298V87.767C350.298 86.2898 349.896 85.2197 349.091 84.5568C348.286 83.8939 347.325 83.5625 346.207 83.5625C344.825 83.5625 343.75 83.9886 342.983 84.8409C342.216 85.6837 341.832 86.768 341.832 88.0938V102H337.599V87.4972C337.599 86.3134 337.23 85.3617 336.491 84.642C335.753 83.9223 334.792 83.5625 333.608 83.5625C332.803 83.5625 332.06 83.7756 331.378 84.2017C330.705 84.6184 330.161 85.2008 329.744 85.9489C329.337 86.697 329.134 87.5634 329.134 88.5483V102H324.886ZM360.579 102V72.9091H364.826V83.7188H365.082C365.328 83.2642 365.683 82.7386 366.147 82.142C366.611 81.5455 367.255 81.0246 368.079 80.5795C368.903 80.125 369.992 79.8977 371.346 79.8977C373.107 79.8977 374.679 80.3428 376.062 81.233C377.444 82.1231 378.529 83.4062 379.315 85.0824C380.11 86.7585 380.508 88.7756 380.508 91.1335C380.508 93.4915 380.115 95.5133 379.329 97.1989C378.543 98.875 377.463 100.168 376.09 101.077C374.717 101.976 373.15 102.426 371.388 102.426C370.063 102.426 368.978 102.204 368.136 101.759C367.302 101.313 366.649 100.793 366.175 100.196C365.702 99.5994 365.337 99.0691 365.082 98.6051H364.727V102H360.579ZM364.741 91.0909C364.741 92.625 364.963 93.9697 365.408 95.125C365.853 96.2803 366.497 97.1847 367.34 97.8381C368.183 98.482 369.215 98.804 370.437 98.804C371.706 98.804 372.766 98.4678 373.619 97.7955C374.471 97.1136 375.115 96.1903 375.55 95.0256C375.996 93.8608 376.218 92.5492 376.218 91.0909C376.218 89.6515 376 88.3589 375.565 87.2131C375.138 86.0672 374.495 85.1629 373.633 84.5C372.781 83.8371 371.715 83.5057 370.437 83.5057C369.206 83.5057 368.164 83.8229 367.312 84.4574C366.469 85.0919 365.83 85.9773 365.394 87.1136C364.959 88.25 364.741 89.5758 364.741 91.0909ZM394.68 102.44C392.531 102.44 390.679 101.981 389.126 101.062C387.583 100.134 386.39 98.8324 385.547 97.1562C384.714 95.4706 384.297 93.4962 384.297 91.233C384.297 88.9981 384.714 87.0284 385.547 85.3239C386.39 83.6193 387.564 82.2888 389.07 81.3324C390.585 80.3759 392.356 79.8977 394.382 79.8977C395.613 79.8977 396.806 80.1013 397.962 80.5085C399.117 80.9157 400.154 81.5549 401.072 82.4261C401.991 83.2973 402.715 84.429 403.246 85.821C403.776 87.2036 404.041 88.8845 404.041 90.8636V92.3693H386.697V89.1875H399.879C399.879 88.0701 399.652 87.0805 399.197 86.2188C398.743 85.3475 398.104 84.661 397.28 84.1591C396.465 83.6572 395.509 83.4062 394.411 83.4062C393.217 83.4062 392.176 83.6998 391.286 84.2869C390.405 84.8646 389.723 85.6222 389.24 86.5597C388.767 87.4877 388.53 88.4962 388.53 89.5852V92.071C388.53 93.5294 388.786 94.7699 389.297 95.7926C389.818 96.8153 390.542 97.5966 391.47 98.1364C392.398 98.6667 393.482 98.9318 394.723 98.9318C395.528 98.9318 396.262 98.8182 396.925 98.5909C397.588 98.3542 398.161 98.0038 398.643 97.5398C399.126 97.0758 399.496 96.5028 399.751 95.821L403.771 96.5455C403.449 97.7292 402.872 98.7661 402.038 99.6562C401.214 100.537 400.178 101.223 398.928 101.716C397.687 102.199 396.271 102.44 394.68 102.44ZM408.754 102V80.1818H412.859V83.6477H413.086C413.484 82.4735 414.184 81.5502 415.188 80.8778C416.201 80.196 417.347 79.8551 418.626 79.8551C418.891 79.8551 419.203 79.8646 419.563 79.8835C419.933 79.9025 420.221 79.9261 420.43 79.9545V84.017C420.259 83.9697 419.956 83.9176 419.521 83.8608C419.085 83.7945 418.649 83.7614 418.214 83.7614C417.21 83.7614 416.315 83.9744 415.529 84.4006C414.753 84.8172 414.137 85.3996 413.683 86.1477C413.228 86.8864 413.001 87.7292 413.001 88.6761V102H408.754ZM434.634 102V98.8182L444.478 88.6193C445.529 87.5114 446.396 86.5407 447.077 85.7074C447.769 84.8646 448.285 84.0644 448.626 83.3068C448.967 82.5492 449.137 81.7443 449.137 80.892C449.137 79.9261 448.91 79.0928 448.455 78.392C448.001 77.6818 447.38 77.1373 446.594 76.7585C445.808 76.3703 444.923 76.1761 443.938 76.1761C442.897 76.1761 441.987 76.3892 441.211 76.8153C440.434 77.2415 439.838 77.8428 439.421 78.6193C439.004 79.3958 438.796 80.3049 438.796 81.3466H434.606C434.606 79.5758 435.013 78.0275 435.827 76.7017C436.642 75.3759 437.759 74.3485 439.18 73.6193C440.6 72.8807 442.215 72.5114 444.023 72.5114C445.851 72.5114 447.461 72.8759 448.853 73.6051C450.254 74.3248 451.348 75.3097 452.134 76.5597C452.92 77.8002 453.313 79.2017 453.313 80.7642C453.313 81.8438 453.11 82.8996 452.702 83.9318C452.305 84.964 451.609 86.1146 450.614 87.3835C449.62 88.643 448.237 90.1723 446.467 91.9716L440.685 98.0227V98.2358H453.782V102H434.634ZM469.293 102.483C467.049 102.473 465.131 101.882 463.54 100.707C461.95 99.5331 460.733 97.8239 459.89 95.5795C459.047 93.3352 458.626 90.6316 458.626 87.4688C458.626 84.3153 459.047 81.6212 459.89 79.3864C460.742 77.1515 461.964 75.447 463.555 74.2727C465.155 73.0985 467.068 72.5114 469.293 72.5114C471.519 72.5114 473.427 73.1032 475.018 74.2869C476.609 75.4612 477.826 77.1657 478.668 79.4006C479.521 81.6259 479.947 84.3153 479.947 87.4688C479.947 90.6411 479.525 93.3494 478.683 95.5938C477.84 97.8286 476.623 99.5379 475.032 100.722C473.441 101.896 471.528 102.483 469.293 102.483ZM469.293 98.6903C471.263 98.6903 472.802 97.7292 473.91 95.8068C475.027 93.8845 475.586 91.1051 475.586 87.4688C475.586 85.054 475.33 83.0133 474.819 81.3466C474.317 79.6705 473.593 78.4015 472.646 77.5398C471.708 76.6686 470.591 76.233 469.293 76.233C467.333 76.233 465.794 77.1989 464.677 79.1307C463.559 81.0625 462.996 83.8419 462.987 87.4688C462.987 89.893 463.237 91.9432 463.739 93.6193C464.251 95.286 464.975 96.5502 465.913 97.4119C466.85 98.2642 467.977 98.6903 469.293 98.6903ZM484.986 102V98.8182L494.83 88.6193C495.881 87.5114 496.747 86.5407 497.429 85.7074C498.12 84.8646 498.636 84.0644 498.977 83.3068C499.318 82.5492 499.489 81.7443 499.489 80.892C499.489 79.9261 499.261 79.0928 498.807 78.392C498.352 77.6818 497.732 77.1373 496.946 76.7585C496.16 76.3703 495.275 76.1761 494.29 76.1761C493.248 76.1761 492.339 76.3892 491.562 76.8153C490.786 77.2415 490.189 77.8428 489.773 78.6193C489.356 79.3958 489.148 80.3049 489.148 81.3466H484.957C484.957 79.5758 485.365 78.0275 486.179 76.7017C486.993 75.3759 488.111 74.3485 489.531 73.6193C490.952 72.8807 492.566 72.5114 494.375 72.5114C496.203 72.5114 497.813 72.8759 499.205 73.6051C500.606 74.3248 501.7 75.3097 502.486 76.5597C503.272 77.8002 503.665 79.2017 503.665 80.7642C503.665 81.8438 503.461 82.8996 503.054 83.9318C502.656 84.964 501.96 86.1146 500.966 87.3835C499.972 88.643 498.589 90.1723 496.818 91.9716L491.037 98.0227V98.2358H504.134V102H484.986ZM508.281 96.3182V92.767L520.852 72.9091H523.651V78.1364H521.875L512.884 92.3693V92.5966H530.114V96.3182H508.281ZM522.074 102V95.2386L522.102 93.6193V72.9091H526.264V102H522.074Z" fill="black"/>
<path d="M3.03409 46V11.0909H26.1477V17.1761H10.4148V25.4943H24.6136V31.5795H10.4148V46H3.03409ZM38.2372 11.0909V46H30.9759V11.0909H38.2372ZM55.8835 46.5114C53.2358 46.5114 50.946 45.9489 49.0142 44.8239C47.0938 43.6875 45.6108 42.108 44.5653 40.0852C43.5199 38.0511 42.9972 35.6932 42.9972 33.0114C42.9972 30.3068 43.5199 27.9432 44.5653 25.9205C45.6108 23.8864 47.0938 22.3068 49.0142 21.1818C50.946 20.0455 53.2358 19.4773 55.8835 19.4773C58.5312 19.4773 60.8153 20.0455 62.7358 21.1818C64.6676 22.3068 66.1562 23.8864 67.2017 25.9205C68.2472 27.9432 68.7699 30.3068 68.7699 33.0114C68.7699 35.6932 68.2472 38.0511 67.2017 40.0852C66.1562 42.108 64.6676 43.6875 62.7358 44.8239C60.8153 45.9489 58.5312 46.5114 55.8835 46.5114ZM55.9176 40.8864C57.1222 40.8864 58.1278 40.5455 58.9347 39.8636C59.7415 39.1705 60.3494 38.2273 60.7585 37.0341C61.179 35.8409 61.3892 34.483 61.3892 32.9602C61.3892 31.4375 61.179 30.0795 60.7585 28.8864C60.3494 27.6932 59.7415 26.75 58.9347 26.0568C58.1278 25.3636 57.1222 25.017 55.9176 25.017C54.7017 25.017 53.679 25.3636 52.8494 26.0568C52.0313 26.75 51.4119 27.6932 50.9915 28.8864C50.5824 30.0795 50.3778 31.4375 50.3778 32.9602C50.3778 34.483 50.5824 35.8409 50.9915 37.0341C51.4119 38.2273 52.0313 39.1705 52.8494 39.8636C53.679 40.5455 54.7017 40.8864 55.9176 40.8864ZM73.4915 46V19.8182H80.5312V24.3864H80.804C81.2813 22.7614 82.0824 21.5341 83.2074 20.7045C84.3324 19.8636 85.6278 19.4432 87.0938 19.4432C87.4574 19.4432 87.8494 19.4659 88.2699 19.5114C88.6903 19.5568 89.0597 19.6193 89.3778 19.6989V26.142C89.0369 26.0398 88.5653 25.9489 87.9631 25.8693C87.3608 25.7898 86.8097 25.75 86.3097 25.75C85.2415 25.75 84.2869 25.983 83.446 26.4489C82.6165 26.9034 81.9574 27.5398 81.4688 28.358C80.9915 29.1761 80.7528 30.1193 80.7528 31.1875V46H73.4915ZM93.1321 46V19.8182H100.393V46H93.1321ZM96.7798 16.4432C95.7003 16.4432 94.7741 16.0852 94.0014 15.3693C93.2401 14.642 92.8594 13.7727 92.8594 12.7614C92.8594 11.7614 93.2401 10.9034 94.0014 10.1875C94.7741 9.46023 95.7003 9.09659 96.7798 9.09659C97.8594 9.09659 98.7798 9.46023 99.5412 10.1875C100.314 10.9034 100.7 11.7614 100.7 12.7614C100.7 13.7727 100.314 14.642 99.5412 15.3693C98.7798 16.0852 97.8594 16.4432 96.7798 16.4432ZM115.858 46.4261C113.869 46.4261 112.068 45.9148 110.455 44.892C108.852 43.858 107.58 42.3409 106.636 40.3409C105.705 38.3295 105.239 35.8636 105.239 32.9432C105.239 29.9432 105.722 27.4489 106.688 25.4602C107.653 23.4602 108.938 21.9659 110.54 20.9773C112.153 19.9773 113.92 19.4773 115.841 19.4773C117.307 19.4773 118.528 19.7273 119.506 20.2273C120.494 20.7159 121.29 21.3295 121.892 22.0682C122.506 22.7955 122.972 23.5114 123.29 24.2159H123.511V11.0909H130.756V46H123.597V41.8068H123.29C122.949 42.5341 122.466 43.2557 121.841 43.9716C121.227 44.6761 120.426 45.2614 119.438 45.7273C118.46 46.1932 117.267 46.4261 115.858 46.4261ZM118.159 40.6477C119.33 40.6477 120.318 40.3295 121.125 39.6932C121.943 39.0455 122.568 38.142 123 36.983C123.443 35.8239 123.665 34.4659 123.665 32.9091C123.665 31.3523 123.449 30 123.017 28.8523C122.585 27.7045 121.96 26.8182 121.142 26.1932C120.324 25.5682 119.33 25.2557 118.159 25.2557C116.966 25.2557 115.96 25.5795 115.142 26.2273C114.324 26.875 113.705 27.7727 113.284 28.9205C112.864 30.0682 112.653 31.3977 112.653 32.9091C112.653 34.4318 112.864 35.7784 113.284 36.9489C113.716 38.108 114.335 39.017 115.142 39.6761C115.96 40.3239 116.966 40.6477 118.159 40.6477ZM144.192 46.4943C142.521 46.4943 141.033 46.2045 139.726 45.625C138.419 45.0341 137.385 44.1648 136.624 43.017C135.874 41.858 135.499 40.4148 135.499 38.6875C135.499 37.233 135.766 36.0114 136.3 35.0227C136.834 34.0341 137.561 33.2386 138.482 32.6364C139.402 32.0341 140.447 31.5795 141.618 31.2727C142.8 30.9659 144.038 30.75 145.334 30.625C146.857 30.4659 148.084 30.3182 149.016 30.1818C149.947 30.0341 150.624 29.8182 151.044 29.5341C151.464 29.25 151.675 28.8295 151.675 28.2727V28.1705C151.675 27.0909 151.334 26.2557 150.652 25.6648C149.982 25.0739 149.027 24.7784 147.788 24.7784C146.482 24.7784 145.442 25.0682 144.669 25.6477C143.896 26.2159 143.385 26.9318 143.135 27.7955L136.419 27.25C136.76 25.6591 137.43 24.2841 138.43 23.125C139.43 21.9545 140.72 21.0568 142.3 20.4318C143.891 19.7955 145.732 19.4773 147.822 19.4773C149.277 19.4773 150.669 19.6477 151.999 19.9886C153.339 20.3295 154.527 20.858 155.561 21.5739C156.607 22.2898 157.43 23.2102 158.033 24.3352C158.635 25.4489 158.936 26.7841 158.936 28.3409V46H152.05V42.3693H151.845C151.425 43.1875 150.862 43.9091 150.158 44.5341C149.453 45.1477 148.607 45.6307 147.618 45.983C146.629 46.3239 145.487 46.4943 144.192 46.4943ZM146.271 41.483C147.339 41.483 148.283 41.2727 149.101 40.8523C149.919 40.4205 150.561 39.8409 151.027 39.1136C151.493 38.3864 151.726 37.5625 151.726 36.642V33.8636C151.499 34.0114 151.186 34.1477 150.788 34.2727C150.402 34.3864 149.964 34.4943 149.476 34.5966C148.987 34.6875 148.499 34.7727 148.01 34.8523C147.521 34.9205 147.078 34.983 146.68 35.0398C145.828 35.1648 145.084 35.3636 144.447 35.6364C143.811 35.9091 143.317 36.2784 142.964 36.7443C142.612 37.1989 142.436 37.767 142.436 38.4489C142.436 39.4375 142.794 40.1932 143.51 40.7159C144.237 41.2273 145.158 41.483 146.271 41.483ZM183.196 11.0909V46H175.815V11.0909H183.196ZM196.393 30.8636V46H189.132V19.8182H196.053V24.4375H196.359C196.939 22.9148 197.911 21.7102 199.274 20.8239C200.638 19.9261 202.291 19.4773 204.234 19.4773C206.053 19.4773 207.638 19.875 208.99 20.6705C210.342 21.4659 211.393 22.6023 212.143 24.0795C212.893 25.5455 213.268 27.2955 213.268 29.3295V46H206.007V30.625C206.018 29.0227 205.609 27.7727 204.78 26.875C203.95 25.9659 202.808 25.5114 201.354 25.5114C200.376 25.5114 199.513 25.7216 198.763 26.142C198.024 26.5625 197.445 27.1761 197.024 27.983C196.615 28.7784 196.405 29.7386 196.393 30.8636ZM232.918 19.8182V25.2727H217.151V19.8182H232.918ZM220.73 13.5455H227.991V37.9545C227.991 38.625 228.094 39.1477 228.298 39.5227C228.503 39.8864 228.787 40.142 229.151 40.2898C229.526 40.4375 229.957 40.5114 230.446 40.5114C230.787 40.5114 231.128 40.483 231.469 40.4261C231.81 40.358 232.071 40.3068 232.253 40.2727L233.395 45.6761C233.031 45.7898 232.52 45.9205 231.861 46.0682C231.202 46.2273 230.401 46.3239 229.457 46.358C227.707 46.4261 226.173 46.1932 224.855 45.6591C223.548 45.125 222.531 44.2955 221.804 43.1705C221.077 42.0455 220.719 40.625 220.73 38.9091V13.5455ZM249.298 46.5114C246.605 46.5114 244.287 45.9659 242.344 44.875C240.412 43.7727 238.923 42.2159 237.878 40.2045C236.832 38.1818 236.31 35.7898 236.31 33.0284C236.31 30.3352 236.832 27.9716 237.878 25.9375C238.923 23.9034 240.395 22.3182 242.293 21.1818C244.202 20.0455 246.44 19.4773 249.009 19.4773C250.736 19.4773 252.344 19.7557 253.832 20.3125C255.332 20.858 256.639 21.6818 257.753 22.7841C258.878 23.8864 259.753 25.2727 260.378 26.9432C261.003 28.6023 261.315 30.5455 261.315 32.7727V34.767H239.207V30.267H254.48C254.48 29.2216 254.253 28.2955 253.798 27.4886C253.344 26.6818 252.713 26.0511 251.906 25.5966C251.111 25.1307 250.185 24.8977 249.128 24.8977C248.026 24.8977 247.048 25.1534 246.196 25.6648C245.355 26.1648 244.696 26.8409 244.219 27.6932C243.741 28.5341 243.497 29.4716 243.486 30.5057V34.7841C243.486 36.0795 243.724 37.1989 244.202 38.142C244.69 39.0852 245.378 39.8125 246.264 40.3239C247.151 40.8352 248.202 41.0909 249.418 41.0909C250.224 41.0909 250.963 40.9773 251.634 40.75C252.304 40.5227 252.878 40.1818 253.355 39.7273C253.832 39.2727 254.196 38.7159 254.446 38.0568L261.162 38.5C260.821 40.1136 260.122 41.5227 259.065 42.7273C258.02 43.9205 256.668 44.8523 255.009 45.5227C253.361 46.1818 251.457 46.5114 249.298 46.5114ZM266.054 46V19.8182H273.094V24.3864H273.366C273.844 22.7614 274.645 21.5341 275.77 20.7045C276.895 19.8636 278.19 19.4432 279.656 19.4432C280.02 19.4432 280.412 19.4659 280.832 19.5114C281.253 19.5568 281.622 19.6193 281.94 19.6989V26.142C281.599 26.0398 281.128 25.9489 280.526 25.8693C279.923 25.7898 279.372 25.75 278.872 25.75C277.804 25.75 276.849 25.983 276.009 26.4489C275.179 26.9034 274.52 27.5398 274.031 28.358C273.554 29.1761 273.315 30.1193 273.315 31.1875V46H266.054ZM292.956 30.8636V46H285.695V19.8182H292.615V24.4375H292.922C293.501 22.9148 294.473 21.7102 295.837 20.8239C297.2 19.9261 298.854 19.4773 300.797 19.4773C302.615 19.4773 304.2 19.875 305.553 20.6705C306.905 21.4659 307.956 22.6023 308.706 24.0795C309.456 25.5455 309.831 27.2955 309.831 29.3295V46H302.57V30.625C302.581 29.0227 302.172 27.7727 301.342 26.875C300.513 25.9659 299.371 25.5114 297.916 25.5114C296.939 25.5114 296.075 25.7216 295.325 26.142C294.587 26.5625 294.007 27.1761 293.587 27.983C293.178 28.7784 292.967 29.7386 292.956 30.8636ZM323.02 46.4943C321.349 46.4943 319.861 46.2045 318.554 45.625C317.247 45.0341 316.213 44.1648 315.452 43.017C314.702 41.858 314.327 40.4148 314.327 38.6875C314.327 37.233 314.594 36.0114 315.128 35.0227C315.662 34.0341 316.389 33.2386 317.31 32.6364C318.23 32.0341 319.276 31.5795 320.446 31.2727C321.628 30.9659 322.866 30.75 324.162 30.625C325.685 30.4659 326.912 30.3182 327.844 30.1818C328.776 30.0341 329.452 29.8182 329.872 29.5341C330.293 29.25 330.503 28.8295 330.503 28.2727V28.1705C330.503 27.0909 330.162 26.2557 329.48 25.6648C328.81 25.0739 327.855 24.7784 326.616 24.7784C325.31 24.7784 324.27 25.0682 323.497 25.6477C322.724 26.2159 322.213 26.9318 321.963 27.7955L315.247 27.25C315.588 25.6591 316.259 24.2841 317.259 23.125C318.259 21.9545 319.548 21.0568 321.128 20.4318C322.719 19.7955 324.56 19.4773 326.651 19.4773C328.105 19.4773 329.497 19.6477 330.827 19.9886C332.168 20.3295 333.355 20.858 334.389 21.5739C335.435 22.2898 336.259 23.2102 336.861 24.3352C337.463 25.4489 337.764 26.7841 337.764 28.3409V46H330.878V42.3693H330.673C330.253 43.1875 329.69 43.9091 328.986 44.5341C328.281 45.1477 327.435 45.6307 326.446 45.983C325.457 46.3239 324.315 46.4943 323.02 46.4943ZM325.099 41.483C326.168 41.483 327.111 41.2727 327.929 40.8523C328.747 40.4205 329.389 39.8409 329.855 39.1136C330.321 38.3864 330.554 37.5625 330.554 36.642V33.8636C330.327 34.0114 330.014 34.1477 329.616 34.2727C329.23 34.3864 328.793 34.4943 328.304 34.5966C327.815 34.6875 327.327 34.7727 326.838 34.8523C326.349 34.9205 325.906 34.983 325.509 35.0398C324.656 35.1648 323.912 35.3636 323.276 35.6364C322.639 35.9091 322.145 36.2784 321.793 36.7443C321.44 37.1989 321.264 37.767 321.264 38.4489C321.264 39.4375 321.622 40.1932 322.338 40.7159C323.065 41.2273 323.986 41.483 325.099 41.483ZM357.324 19.8182V25.2727H341.557V19.8182H357.324ZM345.136 13.5455H352.398V37.9545C352.398 38.625 352.5 39.1477 352.705 39.5227C352.909 39.8864 353.193 40.142 353.557 40.2898C353.932 40.4375 354.364 40.5114 354.852 40.5114C355.193 40.5114 355.534 40.483 355.875 40.4261C356.216 40.358 356.477 40.3068 356.659 40.2727L357.801 45.6761C357.438 45.7898 356.926 45.9205 356.267 46.0682C355.608 46.2273 354.807 46.3239 353.864 46.358C352.114 46.4261 350.58 46.1932 349.261 45.6591C347.955 45.125 346.938 44.2955 346.21 43.1705C345.483 42.0455 345.125 40.625 345.136 38.9091V13.5455ZM362.054 46V19.8182H369.315V46H362.054ZM365.702 16.4432C364.622 16.4432 363.696 16.0852 362.923 15.3693C362.162 14.642 361.781 13.7727 361.781 12.7614C361.781 11.7614 362.162 10.9034 362.923 10.1875C363.696 9.46023 364.622 9.09659 365.702 9.09659C366.781 9.09659 367.702 9.46023 368.463 10.1875C369.236 10.9034 369.622 11.7614 369.622 12.7614C369.622 13.7727 369.236 14.642 368.463 15.3693C367.702 16.0852 366.781 16.4432 365.702 16.4432ZM386.962 46.5114C384.314 46.5114 382.024 45.9489 380.092 44.8239C378.172 43.6875 376.689 42.108 375.643 40.0852C374.598 38.0511 374.075 35.6932 374.075 33.0114C374.075 30.3068 374.598 27.9432 375.643 25.9205C376.689 23.8864 378.172 22.3068 380.092 21.1818C382.024 20.0455 384.314 19.4773 386.962 19.4773C389.609 19.4773 391.893 20.0455 393.814 21.1818C395.746 22.3068 397.234 23.8864 398.28 25.9205C399.325 27.9432 399.848 30.3068 399.848 33.0114C399.848 35.6932 399.325 38.0511 398.28 40.0852C397.234 42.108 395.746 43.6875 393.814 44.8239C391.893 45.9489 389.609 46.5114 386.962 46.5114ZM386.996 40.8864C388.2 40.8864 389.206 40.5455 390.013 39.8636C390.82 39.1705 391.428 38.2273 391.837 37.0341C392.257 35.8409 392.467 34.483 392.467 32.9602C392.467 31.4375 392.257 30.0795 391.837 28.8864C391.428 27.6932 390.82 26.75 390.013 26.0568C389.206 25.3636 388.2 25.017 386.996 25.017C385.78 25.017 384.757 25.3636 383.928 26.0568C383.109 26.75 382.49 27.6932 382.07 28.8864C381.661 30.0795 381.456 31.4375 381.456 32.9602C381.456 34.483 381.661 35.8409 382.07 37.0341C382.49 38.2273 383.109 39.1705 383.928 39.8636C384.757 40.5455 385.78 40.8864 386.996 40.8864ZM411.831 30.8636V46H404.57V19.8182H411.49V24.4375H411.797C412.376 22.9148 413.348 21.7102 414.712 20.8239C416.075 19.9261 417.729 19.4773 419.672 19.4773C421.49 19.4773 423.075 19.875 424.428 20.6705C425.78 21.4659 426.831 22.6023 427.581 24.0795C428.331 25.5455 428.706 27.2955 428.706 29.3295V46H421.445V30.625C421.456 29.0227 421.047 27.7727 420.217 26.875C419.388 25.9659 418.246 25.5114 416.791 25.5114C415.814 25.5114 414.95 25.7216 414.2 26.142C413.462 26.5625 412.882 27.1761 412.462 27.983C412.053 28.7784 411.842 29.7386 411.831 30.8636ZM441.895 46.4943C440.224 46.4943 438.736 46.2045 437.429 45.625C436.122 45.0341 435.088 44.1648 434.327 43.017C433.577 41.858 433.202 40.4148 433.202 38.6875C433.202 37.233 433.469 36.0114 434.003 35.0227C434.537 34.0341 435.264 33.2386 436.185 32.6364C437.105 32.0341 438.151 31.5795 439.321 31.2727C440.503 30.9659 441.741 30.75 443.037 30.625C444.56 30.4659 445.787 30.3182 446.719 30.1818C447.651 30.0341 448.327 29.8182 448.747 29.5341C449.168 29.25 449.378 28.8295 449.378 28.2727V28.1705C449.378 27.0909 449.037 26.2557 448.355 25.6648C447.685 25.0739 446.73 24.7784 445.491 24.7784C444.185 24.7784 443.145 25.0682 442.372 25.6477C441.599 26.2159 441.088 26.9318 440.838 27.7955L434.122 27.25C434.463 25.6591 435.134 24.2841 436.134 23.125C437.134 21.9545 438.423 21.0568 440.003 20.4318C441.594 19.7955 443.435 19.4773 445.526 19.4773C446.98 19.4773 448.372 19.6477 449.702 19.9886C451.043 20.3295 452.23 20.858 453.264 21.5739C454.31 22.2898 455.134 23.2102 455.736 24.3352C456.338 25.4489 456.639 26.7841 456.639 28.3409V46H449.753V42.3693H449.548C449.128 43.1875 448.565 43.9091 447.861 44.5341C447.156 45.1477 446.31 45.6307 445.321 45.983C444.332 46.3239 443.19 46.4943 441.895 46.4943ZM443.974 41.483C445.043 41.483 445.986 41.2727 446.804 40.8523C447.622 40.4205 448.264 39.8409 448.73 39.1136C449.196 38.3864 449.429 37.5625 449.429 36.642V33.8636C449.202 34.0114 448.889 34.1477 448.491 34.2727C448.105 34.3864 447.668 34.4943 447.179 34.5966C446.69 34.6875 446.202 34.7727 445.713 34.8523C445.224 34.9205 444.781 34.983 444.384 35.0398C443.531 35.1648 442.787 35.3636 442.151 35.6364C441.514 35.9091 441.02 36.2784 440.668 36.7443C440.315 37.1989 440.139 37.767 440.139 38.4489C440.139 39.4375 440.497 40.1932 441.213 40.7159C441.94 41.2273 442.861 41.483 443.974 41.483ZM469.534 11.0909V46H462.273V11.0909H469.534ZM508.159 11.0909H515.54V33.7614C515.54 36.3068 514.932 38.5341 513.716 40.4432C512.511 42.3523 510.824 43.8409 508.653 44.9091C506.483 45.9659 503.955 46.4943 501.068 46.4943C498.17 46.4943 495.636 45.9659 493.466 44.9091C491.295 43.8409 489.608 42.3523 488.403 40.4432C487.199 38.5341 486.597 36.3068 486.597 33.7614V11.0909H493.977V33.1307C493.977 34.4602 494.267 35.642 494.847 36.6761C495.438 37.7102 496.267 38.5227 497.335 39.1136C498.403 39.7045 499.648 40 501.068 40C502.5 40 503.744 39.7045 504.801 39.1136C505.869 38.5227 506.693 37.7102 507.273 36.6761C507.864 35.642 508.159 34.4602 508.159 33.1307V11.0909ZM528.737 30.8636V46H521.476V19.8182H528.396V24.4375H528.703C529.283 22.9148 530.254 21.7102 531.618 20.8239C532.982 19.9261 534.635 19.4773 536.578 19.4773C538.396 19.4773 539.982 19.875 541.334 20.6705C542.686 21.4659 543.737 22.6023 544.487 24.0795C545.237 25.5455 545.612 27.2955 545.612 29.3295V46H538.351V30.625C538.362 29.0227 537.953 27.7727 537.124 26.875C536.294 25.9659 535.152 25.5114 533.697 25.5114C532.72 25.5114 531.857 25.7216 531.107 26.142C530.368 26.5625 529.788 27.1761 529.368 27.983C528.959 28.7784 528.749 29.7386 528.737 30.8636ZM551.335 46V19.8182H558.597V46H551.335ZM554.983 16.4432C553.903 16.4432 552.977 16.0852 552.205 15.3693C551.443 14.642 551.062 13.7727 551.062 12.7614C551.062 11.7614 551.443 10.9034 552.205 10.1875C552.977 9.46023 553.903 9.09659 554.983 9.09659C556.063 9.09659 556.983 9.46023 557.744 10.1875C558.517 10.9034 558.903 11.7614 558.903 12.7614C558.903 13.7727 558.517 14.642 557.744 15.3693C556.983 16.0852 556.063 16.4432 554.983 16.4432ZM588.822 19.8182L579.669 46H571.487L562.334 19.8182H570.004L575.442 38.5511H575.714L581.135 19.8182H588.822ZM603.626 46.5114C600.933 46.5114 598.615 45.9659 596.672 44.875C594.74 43.7727 593.251 42.2159 592.206 40.2045C591.161 38.1818 590.638 35.7898 590.638 33.0284C590.638 30.3352 591.161 27.9716 592.206 25.9375C593.251 23.9034 594.723 22.3182 596.621 21.1818C598.53 20.0455 600.768 19.4773 603.337 19.4773C605.064 19.4773 606.672 19.7557 608.161 20.3125C609.661 20.858 610.967 21.6818 612.081 22.7841C613.206 23.8864 614.081 25.2727 614.706 26.9432C615.331 28.6023 615.643 30.5455 615.643 32.7727V34.767H593.536V30.267H608.808C608.808 29.2216 608.581 28.2955 608.126 27.4886C607.672 26.6818 607.041 26.0511 606.234 25.5966C605.439 25.1307 604.513 24.8977 603.456 24.8977C602.354 24.8977 601.376 25.1534 600.524 25.6648C599.683 26.1648 599.024 26.8409 598.547 27.6932C598.07 28.5341 597.825 29.4716 597.814 30.5057V34.7841C597.814 36.0795 598.053 37.1989 598.53 38.142C599.018 39.0852 599.706 39.8125 600.592 40.3239C601.479 40.8352 602.53 41.0909 603.746 41.0909C604.553 41.0909 605.291 40.9773 605.962 40.75C606.632 40.5227 607.206 40.1818 607.683 39.7273C608.161 39.2727 608.524 38.7159 608.774 38.0568L615.49 38.5C615.149 40.1136 614.45 41.5227 613.393 42.7273C612.348 43.9205 610.996 44.8523 609.337 45.5227C607.689 46.1818 605.786 46.5114 603.626 46.5114ZM620.382 46V19.8182H627.422V24.3864H627.695C628.172 22.7614 628.973 21.5341 630.098 20.7045C631.223 19.8636 632.518 19.4432 633.984 19.4432C634.348 19.4432 634.74 19.4659 635.161 19.5114C635.581 19.5568 635.95 19.6193 636.268 19.6989V26.142C635.928 26.0398 635.456 25.9489 634.854 25.8693C634.251 25.7898 633.7 25.75 633.2 25.75C632.132 25.75 631.178 25.983 630.337 26.4489C629.507 26.9034 628.848 27.5398 628.359 28.358C627.882 29.1761 627.643 30.1193 627.643 31.1875V46H620.382ZM661.807 27.2841L655.159 27.6932C655.045 27.125 654.801 26.6136 654.426 26.1591C654.051 25.6932 653.557 25.3239 652.943 25.0511C652.341 24.767 651.619 24.625 650.778 24.625C649.653 24.625 648.705 24.8636 647.932 25.3409C647.159 25.8068 646.773 26.4318 646.773 27.2159C646.773 27.8409 647.023 28.3693 647.523 28.8011C648.023 29.233 648.881 29.5795 650.097 29.8409L654.835 30.7955C657.381 31.3182 659.278 32.1591 660.528 33.3182C661.778 34.4773 662.403 36 662.403 37.8864C662.403 39.6023 661.898 41.108 660.886 42.4034C659.886 43.6989 658.511 44.7102 656.761 45.4375C655.023 46.1534 653.017 46.5114 650.744 46.5114C647.278 46.5114 644.517 45.7898 642.46 44.3466C640.415 42.892 639.216 40.9148 638.864 38.4148L646.006 38.0398C646.222 39.0966 646.744 39.9034 647.574 40.4602C648.403 41.0057 649.466 41.2784 650.761 41.2784C652.034 41.2784 653.057 41.0341 653.83 40.5455C654.614 40.0455 655.011 39.4034 655.023 38.6193C655.011 37.9602 654.733 37.4205 654.188 37C653.642 36.5682 652.801 36.2386 651.665 36.0114L647.131 35.108C644.574 34.5966 642.67 33.7102 641.42 32.4489C640.182 31.1875 639.562 29.5795 639.562 27.625C639.562 25.9432 640.017 24.4943 640.926 23.2784C641.847 22.0625 643.136 21.125 644.795 20.4659C646.466 19.8068 648.42 19.4773 650.659 19.4773C653.966 19.4773 656.568 20.1761 658.466 21.5739C660.375 22.9716 661.489 24.875 661.807 27.2841ZM666.976 46V19.8182H674.237V46H666.976ZM670.624 16.4432C669.544 16.4432 668.618 16.0852 667.845 15.3693C667.084 14.642 666.703 13.7727 666.703 12.7614C666.703 11.7614 667.084 10.9034 667.845 10.1875C668.618 9.46023 669.544 9.09659 670.624 9.09659C671.703 9.09659 672.624 9.46023 673.385 10.1875C674.158 10.9034 674.544 11.7614 674.544 12.7614C674.544 13.7727 674.158 14.642 673.385 15.3693C672.624 16.0852 671.703 16.4432 670.624 16.4432ZM693.98 19.8182V25.2727H678.213V19.8182H693.98ZM681.793 13.5455H689.054V37.9545C689.054 38.625 689.156 39.1477 689.361 39.5227C689.565 39.8864 689.849 40.142 690.213 40.2898C690.588 40.4375 691.02 40.5114 691.509 40.5114C691.849 40.5114 692.19 40.483 692.531 40.4261C692.872 40.358 693.134 40.3068 693.315 40.2727L694.457 45.6761C694.094 45.7898 693.582 45.9205 692.923 46.0682C692.264 46.2273 691.463 46.3239 690.52 46.358C688.77 46.4261 687.236 46.1932 685.918 45.6591C684.611 45.125 683.594 44.2955 682.866 43.1705C682.139 42.0455 681.781 40.625 681.793 38.9091V13.5455ZM703.193 55.8182C702.273 55.8182 701.409 55.7443 700.602 55.5966C699.807 55.4602 699.148 55.2841 698.625 55.0682L700.261 49.6477C701.114 49.9091 701.881 50.0511 702.562 50.0739C703.256 50.0966 703.852 49.9375 704.352 49.5966C704.864 49.2557 705.278 48.6761 705.597 47.858L706.023 46.75L696.631 19.8182H704.267L709.688 39.0455H709.96L715.432 19.8182H723.119L712.943 48.8295C712.455 50.2386 711.79 51.4659 710.949 52.5114C710.119 53.5682 709.068 54.3807 707.795 54.9489C706.523 55.5284 704.989 55.8182 703.193 55.8182Z" fill="#081E3F"/>
</svg>
