<svg width="247" height="81" viewBox="0 0 247 81" fill="none" xmlns="http://www.w3.org/2000/svg">
<path d="M1.51705 23V5.54545H13.0739V8.58807H5.20739V12.7472H12.3068V15.7898H5.20739V23H1.51705ZM19.1186 5.54545V23H15.4879V5.54545H19.1186ZM27.9418 23.2557C26.6179 23.2557 25.473 22.9744 24.5071 22.4119C23.5469 21.8437 22.8054 21.054 22.2827 20.0426C21.7599 19.0256 21.4986 17.8466 21.4986 16.5057C21.4986 15.1534 21.7599 13.9716 22.2827 12.9602C22.8054 11.9432 23.5469 11.1534 24.5071 10.5909C25.473 10.0227 26.6179 9.73864 27.9418 9.73864C29.2656 9.73864 30.4077 10.0227 31.3679 10.5909C32.3338 11.1534 33.0781 11.9432 33.6009 12.9602C34.1236 13.9716 34.3849 15.1534 34.3849 16.5057C34.3849 17.8466 34.1236 19.0256 33.6009 20.0426C33.0781 21.054 32.3338 21.8437 31.3679 22.4119C30.4077 22.9744 29.2656 23.2557 27.9418 23.2557ZM27.9588 20.4432C28.5611 20.4432 29.0639 20.2727 29.4673 19.9318C29.8707 19.5852 30.1747 19.1136 30.3793 18.517C30.5895 17.9205 30.6946 17.2415 30.6946 16.4801C30.6946 15.7188 30.5895 15.0398 30.3793 14.4432C30.1747 13.8466 29.8707 13.375 29.4673 13.0284C29.0639 12.6818 28.5611 12.5085 27.9588 12.5085C27.3509 12.5085 26.8395 12.6818 26.4247 13.0284C26.0156 13.375 25.706 13.8466 25.4957 14.4432C25.2912 15.0398 25.1889 15.7188 25.1889 16.4801C25.1889 17.2415 25.2912 17.9205 25.4957 18.517C25.706 19.1136 26.0156 19.5852 26.4247 19.9318C26.8395 20.2727 27.3509 20.4432 27.9588 20.4432ZM36.7457 23V9.90909H40.2656V12.1932H40.402C40.6406 11.3807 41.0412 10.767 41.6037 10.3523C42.1662 9.93182 42.8139 9.72159 43.5469 9.72159C43.7287 9.72159 43.9247 9.73295 44.1349 9.75568C44.3452 9.77841 44.5298 9.80966 44.6889 9.84943V13.071C44.5185 13.0199 44.2827 12.9744 43.9815 12.9347C43.6804 12.8949 43.4048 12.875 43.1548 12.875C42.6207 12.875 42.1435 12.9915 41.723 13.2244C41.3082 13.4517 40.9787 13.7699 40.7344 14.179C40.4957 14.5881 40.3764 15.0597 40.3764 15.5938V23H36.7457ZM46.5661 23V9.90909H50.1967V23H46.5661ZM48.3899 8.22159C47.8501 8.22159 47.3871 8.04261 47.0007 7.68466C46.62 7.32102 46.4297 6.88636 46.4297 6.38068C46.4297 5.88068 46.62 5.4517 47.0007 5.09375C47.3871 4.73011 47.8501 4.54829 48.3899 4.54829C48.9297 4.54829 49.3899 4.73011 49.7706 5.09375C50.157 5.4517 50.3501 5.88068 50.3501 6.38068C50.3501 6.88636 50.157 7.32102 49.7706 7.68466C49.3899 8.04261 48.9297 8.22159 48.3899 8.22159ZM57.929 23.2131C56.9347 23.2131 56.0341 22.9574 55.2273 22.446C54.4261 21.929 53.7898 21.1705 53.3182 20.1705C52.8523 19.1648 52.6193 17.9318 52.6193 16.4716C52.6193 14.9716 52.8608 13.7244 53.3438 12.7301C53.8267 11.7301 54.4688 10.983 55.2699 10.4886C56.0767 9.98864 56.9602 9.73864 57.9205 9.73864C58.6534 9.73864 59.2642 9.86364 59.7528 10.1136C60.2472 10.358 60.6449 10.6648 60.946 11.0341C61.2528 11.3977 61.4858 11.7557 61.6449 12.108H61.7557V5.54545H65.3778V23H61.7983V20.9034H61.6449C61.4744 21.267 61.233 21.6278 60.9205 21.9858C60.6136 22.3381 60.2131 22.6307 59.7188 22.8636C59.2301 23.0966 58.6335 23.2131 57.929 23.2131ZM59.0795 20.3239C59.6648 20.3239 60.1591 20.1648 60.5625 19.8466C60.9716 19.5227 61.2841 19.071 61.5 18.4915C61.7216 17.9119 61.8324 17.233 61.8324 16.4545C61.8324 15.6761 61.7244 15 61.5085 14.4261C61.2926 13.8523 60.9801 13.4091 60.571 13.0966C60.1619 12.7841 59.6648 12.6278 59.0795 12.6278C58.483 12.6278 57.9801 12.7898 57.571 13.1136C57.1619 13.4375 56.8523 13.8864 56.642 14.4602C56.4318 15.0341 56.3267 15.6989 56.3267 16.4545C56.3267 17.2159 56.4318 17.8892 56.642 18.4744C56.858 19.054 57.1676 19.5085 57.571 19.8381C57.9801 20.1619 58.483 20.3239 59.0795 20.3239ZM72.0959 23.2472C71.2607 23.2472 70.5163 23.1023 69.8629 22.8125C69.2095 22.517 68.6925 22.0824 68.3118 21.5085C67.9368 20.929 67.7493 20.2074 67.7493 19.3438C67.7493 18.6165 67.8828 18.0057 68.1499 17.5114C68.4169 17.017 68.7805 16.6193 69.2408 16.3182C69.701 16.017 70.2237 15.7898 70.8089 15.6364C71.3999 15.483 72.0192 15.375 72.6669 15.3125C73.4283 15.233 74.0419 15.1591 74.5078 15.0909C74.9737 15.017 75.3118 14.9091 75.522 14.767C75.7322 14.625 75.8374 14.4148 75.8374 14.1364V14.0852C75.8374 13.5455 75.6669 13.1278 75.326 12.8324C74.9908 12.5369 74.5135 12.3892 73.8942 12.3892C73.2408 12.3892 72.7209 12.5341 72.3345 12.8239C71.9482 13.108 71.6925 13.4659 71.5675 13.8977L68.2095 13.625C68.38 12.8295 68.7152 12.142 69.2152 11.5625C69.7152 10.9773 70.3601 10.5284 71.1499 10.2159C71.9453 9.89773 72.8658 9.73864 73.9112 9.73864C74.6385 9.73864 75.3345 9.82386 75.9993 9.99432C76.6697 10.1648 77.2635 10.429 77.7805 10.7869C78.3033 11.1449 78.7152 11.6051 79.0163 12.1676C79.3175 12.7244 79.468 13.392 79.468 14.1705V23H76.0249V21.1847H75.9226C75.7124 21.5938 75.4311 21.9545 75.0788 22.267C74.7266 22.5739 74.3033 22.8153 73.8089 22.9915C73.3146 23.1619 72.7436 23.2472 72.0959 23.2472ZM73.1357 20.7415C73.6697 20.7415 74.1413 20.6364 74.5504 20.4261C74.9595 20.2102 75.2805 19.9205 75.5135 19.5568C75.7464 19.1932 75.8629 18.7812 75.8629 18.321V16.9318C75.7493 17.0057 75.593 17.0739 75.3942 17.1364C75.201 17.1932 74.9822 17.2472 74.7379 17.2983C74.4936 17.3437 74.2493 17.3864 74.005 17.4261C73.7607 17.4602 73.5391 17.4915 73.3402 17.5199C72.9141 17.5824 72.5419 17.6818 72.2237 17.8182C71.9055 17.9545 71.6584 18.1392 71.4822 18.3722C71.3061 18.5994 71.218 18.8835 71.218 19.2244C71.218 19.7188 71.397 20.0966 71.755 20.358C72.1186 20.6136 72.5788 20.7415 73.1357 20.7415ZM91.598 5.54545V23H87.9077V5.54545H91.598ZM98.1967 15.4318V23H94.5661V9.90909H98.0263V12.2188H98.1797C98.4695 11.4574 98.9553 10.8551 99.6371 10.4119C100.319 9.96307 101.146 9.73864 102.117 9.73864C103.026 9.73864 103.819 9.9375 104.495 10.3352C105.171 10.733 105.697 11.3011 106.072 12.0398C106.447 12.7727 106.634 13.6477 106.634 14.6648V23H103.004V15.3125C103.009 14.5114 102.805 13.8864 102.39 13.4375C101.975 12.983 101.404 12.7557 100.677 12.7557C100.188 12.7557 99.7564 12.8608 99.3814 13.071C99.0121 13.2812 98.7223 13.5881 98.5121 13.9915C98.3075 14.3892 98.2024 14.8693 98.1967 15.4318ZM116.459 9.90909V12.6364H108.575V9.90909H116.459ZM110.365 6.77273H113.996V18.9773C113.996 19.3125 114.047 19.5739 114.149 19.7614C114.251 19.9432 114.393 20.071 114.575 20.1449C114.763 20.2187 114.979 20.2557 115.223 20.2557C115.393 20.2557 115.564 20.2415 115.734 20.2131C115.905 20.179 116.036 20.1534 116.126 20.1364L116.697 22.8381C116.516 22.8949 116.26 22.9602 115.93 23.0341C115.601 23.1136 115.2 23.1619 114.729 23.179C113.854 23.2131 113.087 23.0966 112.428 22.8295C111.774 22.5625 111.266 22.1477 110.902 21.5852C110.538 21.0227 110.359 20.3125 110.365 19.4545V6.77273ZM124.649 23.2557C123.303 23.2557 122.143 22.983 121.172 22.4375C120.206 21.8864 119.462 21.108 118.939 20.1023C118.416 19.0909 118.155 17.8949 118.155 16.5142C118.155 15.1676 118.416 13.9858 118.939 12.9688C119.462 11.9517 120.197 11.1591 121.146 10.5909C122.101 10.0227 123.22 9.73864 124.504 9.73864C125.368 9.73864 126.172 9.87784 126.916 10.1562C127.666 10.429 128.32 10.8409 128.876 11.392C129.439 11.9432 129.876 12.6364 130.189 13.4716C130.501 14.3011 130.658 15.2727 130.658 16.3864V17.3835H119.604V15.1335H127.24C127.24 14.6108 127.126 14.1477 126.899 13.7443C126.672 13.3409 126.357 13.0256 125.953 12.7983C125.555 12.5653 125.092 12.4489 124.564 12.4489C124.013 12.4489 123.524 12.5767 123.098 12.8324C122.678 13.0824 122.348 13.4205 122.109 13.8466C121.871 14.267 121.749 14.7358 121.743 15.2528V17.392C121.743 18.0398 121.862 18.5994 122.101 19.071C122.345 19.5426 122.689 19.9062 123.132 20.1619C123.575 20.4176 124.101 20.5455 124.709 20.5455C125.112 20.5455 125.482 20.4886 125.817 20.375C126.152 20.2614 126.439 20.0909 126.678 19.8636C126.916 19.6364 127.098 19.358 127.223 19.0284L130.581 19.25C130.411 20.0568 130.061 20.7614 129.533 21.3636C129.01 21.9602 128.334 22.4261 127.504 22.7614C126.68 23.0909 125.729 23.2557 124.649 23.2557ZM133.027 23V9.90909H136.547V12.1932H136.683C136.922 11.3807 137.322 10.767 137.885 10.3523C138.447 9.93182 139.095 9.72159 139.828 9.72159C140.01 9.72159 140.206 9.73295 140.416 9.75568C140.626 9.77841 140.811 9.80966 140.97 9.84943V13.071C140.8 13.0199 140.564 12.9744 140.263 12.9347C139.962 12.8949 139.686 12.875 139.436 12.875C138.902 12.875 138.425 12.9915 138.004 13.2244C137.589 13.4517 137.26 13.7699 137.016 14.179C136.777 14.5881 136.658 15.0597 136.658 15.5938V23H133.027ZM146.478 15.4318V23H142.847V9.90909H146.308V12.2188H146.461C146.751 11.4574 147.237 10.8551 147.918 10.4119C148.6 9.96307 149.427 9.73864 150.398 9.73864C151.308 9.73864 152.1 9.9375 152.776 10.3352C153.452 10.733 153.978 11.3011 154.353 12.0398C154.728 12.7727 154.915 13.6477 154.915 14.6648V23H151.285V15.3125C151.29 14.5114 151.086 13.8864 150.671 13.4375C150.256 12.983 149.685 12.7557 148.958 12.7557C148.469 12.7557 148.038 12.8608 147.663 13.071C147.293 13.2812 147.004 13.5881 146.793 13.9915C146.589 14.3892 146.484 14.8693 146.478 15.4318ZM161.51 23.2472C160.675 23.2472 159.93 23.1023 159.277 22.8125C158.624 22.517 158.107 22.0824 157.726 21.5085C157.351 20.929 157.163 20.2074 157.163 19.3438C157.163 18.6165 157.297 18.0057 157.564 17.5114C157.831 17.017 158.195 16.6193 158.655 16.3182C159.115 16.017 159.638 15.7898 160.223 15.6364C160.814 15.483 161.433 15.375 162.081 15.3125C162.842 15.233 163.456 15.1591 163.922 15.0909C164.388 15.017 164.726 14.9091 164.936 14.767C165.146 14.625 165.251 14.4148 165.251 14.1364V14.0852C165.251 13.5455 165.081 13.1278 164.74 12.8324C164.405 12.5369 163.928 12.3892 163.308 12.3892C162.655 12.3892 162.135 12.5341 161.749 12.8239C161.362 13.108 161.107 13.4659 160.982 13.8977L157.624 13.625C157.794 12.8295 158.129 12.142 158.629 11.5625C159.129 10.9773 159.774 10.5284 160.564 10.2159C161.359 9.89773 162.28 9.73864 163.325 9.73864C164.053 9.73864 164.749 9.82386 165.413 9.99432C166.084 10.1648 166.678 10.429 167.195 10.7869C167.717 11.1449 168.129 11.6051 168.43 12.1676C168.732 12.7244 168.882 13.392 168.882 14.1705V23H165.439V21.1847H165.337C165.126 21.5938 164.845 21.9545 164.493 22.267C164.141 22.5739 163.717 22.8153 163.223 22.9915C162.729 23.1619 162.158 23.2472 161.51 23.2472ZM162.55 20.7415C163.084 20.7415 163.555 20.6364 163.964 20.4261C164.374 20.2102 164.695 19.9205 164.928 19.5568C165.161 19.1932 165.277 18.7812 165.277 18.321V16.9318C165.163 17.0057 165.007 17.0739 164.808 17.1364C164.615 17.1932 164.396 17.2472 164.152 17.2983C163.908 17.3437 163.663 17.3864 163.419 17.4261C163.175 17.4602 162.953 17.4915 162.754 17.5199C162.328 17.5824 161.956 17.6818 161.638 17.8182C161.32 17.9545 161.072 18.1392 160.896 18.3722C160.72 18.5994 160.632 18.8835 160.632 19.2244C160.632 19.7188 160.811 20.0966 161.169 20.358C161.533 20.6136 161.993 20.7415 162.55 20.7415ZM178.662 9.90909V12.6364H170.778V9.90909H178.662ZM172.568 6.77273H176.199V18.9773C176.199 19.3125 176.25 19.5739 176.352 19.7614C176.455 19.9432 176.597 20.071 176.778 20.1449C176.966 20.2187 177.182 20.2557 177.426 20.2557C177.597 20.2557 177.767 20.2415 177.938 20.2131C178.108 20.179 178.239 20.1534 178.33 20.1364L178.901 22.8381C178.719 22.8949 178.463 22.9602 178.134 23.0341C177.804 23.1136 177.403 23.1619 176.932 23.179C176.057 23.2131 175.29 23.0966 174.631 22.8295C173.977 22.5625 173.469 22.1477 173.105 21.5852C172.741 21.0227 172.563 20.3125 172.568 19.4545V6.77273ZM181.027 23V9.90909H184.658V23H181.027ZM182.851 8.22159C182.311 8.22159 181.848 8.04261 181.462 7.68466C181.081 7.32102 180.891 6.88636 180.891 6.38068C180.891 5.88068 181.081 5.4517 181.462 5.09375C181.848 4.73011 182.311 4.54829 182.851 4.54829C183.391 4.54829 183.851 4.73011 184.232 5.09375C184.618 5.4517 184.811 5.88068 184.811 6.38068C184.811 6.88636 184.618 7.32102 184.232 7.68466C183.851 8.04261 183.391 8.22159 182.851 8.22159ZM193.481 23.2557C192.157 23.2557 191.012 22.9744 190.046 22.4119C189.086 21.8437 188.344 21.054 187.822 20.0426C187.299 19.0256 187.038 17.8466 187.038 16.5057C187.038 15.1534 187.299 13.9716 187.822 12.9602C188.344 11.9432 189.086 11.1534 190.046 10.5909C191.012 10.0227 192.157 9.73864 193.481 9.73864C194.805 9.73864 195.947 10.0227 196.907 10.5909C197.873 11.1534 198.617 11.9432 199.14 12.9602C199.663 13.9716 199.924 15.1534 199.924 16.5057C199.924 17.8466 199.663 19.0256 199.14 20.0426C198.617 21.054 197.873 21.8437 196.907 22.4119C195.947 22.9744 194.805 23.2557 193.481 23.2557ZM193.498 20.4432C194.1 20.4432 194.603 20.2727 195.006 19.9318C195.41 19.5852 195.714 19.1136 195.918 18.517C196.129 17.9205 196.234 17.2415 196.234 16.4801C196.234 15.7188 196.129 15.0398 195.918 14.4432C195.714 13.8466 195.41 13.375 195.006 13.0284C194.603 12.6818 194.1 12.5085 193.498 12.5085C192.89 12.5085 192.379 12.6818 191.964 13.0284C191.555 13.375 191.245 13.8466 191.035 14.4432C190.83 15.0398 190.728 15.7188 190.728 16.4801C190.728 17.2415 190.83 17.9205 191.035 18.517C191.245 19.1136 191.555 19.5852 191.964 19.9318C192.379 20.2727 192.89 20.4432 193.498 20.4432ZM205.915 15.4318V23H202.285V9.90909H205.745V12.2188H205.898C206.188 11.4574 206.674 10.8551 207.356 10.4119C208.038 9.96307 208.864 9.73864 209.836 9.73864C210.745 9.73864 211.538 9.9375 212.214 10.3352C212.89 10.733 213.415 11.3011 213.79 12.0398C214.165 12.7727 214.353 13.6477 214.353 14.6648V23H210.722V15.3125C210.728 14.5114 210.523 13.8864 210.109 13.4375C209.694 12.983 209.123 12.7557 208.396 12.7557C207.907 12.7557 207.475 12.8608 207.1 13.071C206.731 13.2812 206.441 13.5881 206.231 13.9915C206.026 14.3892 205.921 14.8693 205.915 15.4318ZM220.947 23.2472C220.112 23.2472 219.368 23.1023 218.714 22.8125C218.061 22.517 217.544 22.0824 217.163 21.5085C216.788 20.929 216.601 20.2074 216.601 19.3438C216.601 18.6165 216.734 18.0057 217.001 17.5114C217.268 17.017 217.632 16.6193 218.092 16.3182C218.553 16.017 219.075 15.7898 219.661 15.6364C220.251 15.483 220.871 15.375 221.518 15.3125C222.28 15.233 222.893 15.1591 223.359 15.0909C223.825 15.017 224.163 14.9091 224.374 14.767C224.584 14.625 224.689 14.4148 224.689 14.1364V14.0852C224.689 13.5455 224.518 13.1278 224.178 12.8324C223.842 12.5369 223.365 12.3892 222.746 12.3892C222.092 12.3892 221.572 12.5341 221.186 12.8239C220.8 13.108 220.544 13.4659 220.419 13.8977L217.061 13.625C217.232 12.8295 217.567 12.142 218.067 11.5625C218.567 10.9773 219.212 10.5284 220.001 10.2159C220.797 9.89773 221.717 9.73864 222.763 9.73864C223.49 9.73864 224.186 9.82386 224.851 9.99432C225.521 10.1648 226.115 10.429 226.632 10.7869C227.155 11.1449 227.567 11.6051 227.868 12.1676C228.169 12.7244 228.32 13.392 228.32 14.1705V23H224.876V21.1847H224.774C224.564 21.5938 224.283 21.9545 223.93 22.267C223.578 22.5739 223.155 22.8153 222.661 22.9915C222.166 23.1619 221.595 23.2472 220.947 23.2472ZM221.987 20.7415C222.521 20.7415 222.993 20.6364 223.402 20.4261C223.811 20.2102 224.132 19.9205 224.365 19.5568C224.598 19.1932 224.714 18.7812 224.714 18.321V16.9318C224.601 17.0057 224.445 17.0739 224.246 17.1364C224.053 17.1932 223.834 17.2472 223.589 17.2983C223.345 17.3437 223.101 17.3864 222.857 17.4261C222.612 17.4602 222.391 17.4915 222.192 17.5199C221.766 17.5824 221.393 17.6818 221.075 17.8182C220.757 17.9545 220.51 18.1392 220.334 18.3722C220.158 18.5994 220.07 18.8835 220.07 19.2244C220.07 19.7188 220.249 20.0966 220.607 20.358C220.97 20.6136 221.43 20.7415 221.987 20.7415ZM234.767 5.54545V23H231.136V5.54545H234.767ZM12.2983 34.5455H15.9886V45.8807C15.9886 47.1534 15.6847 48.267 15.0767 49.2216C14.4744 50.1761 13.6307 50.9205 12.5455 51.4545C11.4602 51.983 10.196 52.2472 8.75284 52.2472C7.30398 52.2472 6.03693 51.983 4.9517 51.4545C3.86648 50.9205 3.02273 50.1761 2.42045 49.2216C1.81818 48.267 1.51705 47.1534 1.51705 45.8807V34.5455H5.20739V45.5653C5.20739 46.2301 5.35227 46.821 5.64205 47.3381C5.9375 47.8551 6.35227 48.2614 6.88636 48.5568C7.42045 48.8523 8.04261 49 8.75284 49C9.46875 49 10.0909 48.8523 10.6193 48.5568C11.1534 48.2614 11.5653 47.8551 11.8551 47.3381C12.1506 46.821 12.2983 46.2301 12.2983 45.5653V34.5455ZM22.5874 44.4318V52H18.9567V38.9091H22.4169V41.2188H22.5703C22.8601 40.4574 23.3459 39.8551 24.0277 39.4119C24.7095 38.9631 25.5362 38.7386 26.5078 38.7386C27.4169 38.7386 28.2095 38.9375 28.8857 39.3352C29.5618 39.733 30.0874 40.3011 30.4624 41.0398C30.8374 41.7727 31.0249 42.6477 31.0249 43.6648V52H27.3942V44.3125C27.3999 43.5114 27.1953 42.8864 26.7805 42.4375C26.3658 41.983 25.7947 41.7557 25.0675 41.7557C24.5788 41.7557 24.147 41.8608 23.772 42.071C23.4027 42.2812 23.1129 42.5881 22.9027 42.9915C22.6982 43.3892 22.593 43.8693 22.5874 44.4318ZM33.8864 52V38.9091H37.517V52H33.8864ZM35.7102 37.2216C35.1705 37.2216 34.7074 37.0426 34.321 36.6847C33.9403 36.321 33.75 35.8864 33.75 35.3807C33.75 34.8807 33.9403 34.4517 34.321 34.0938C34.7074 33.7301 35.1705 33.5483 35.7102 33.5483C36.25 33.5483 36.7102 33.7301 37.0909 34.0938C37.4773 34.4517 37.6705 34.8807 37.6705 35.3807C37.6705 35.8864 37.4773 36.321 37.0909 36.6847C36.7102 37.0426 36.25 37.2216 35.7102 37.2216ZM52.63 38.9091L48.0533 52H43.9624L39.3857 38.9091H43.2209L45.9396 48.2756H46.076L48.7862 38.9091H52.63ZM60.032 52.2557C58.6854 52.2557 57.5263 51.983 56.5547 51.4375C55.5888 50.8864 54.8445 50.108 54.3217 49.1023C53.799 48.0909 53.5376 46.8949 53.5376 45.5142C53.5376 44.1676 53.799 42.9858 54.3217 41.9688C54.8445 40.9517 55.5803 40.1591 56.5291 39.5909C57.4837 39.0227 58.603 38.7386 59.8871 38.7386C60.7507 38.7386 61.5547 38.8778 62.299 39.1562C63.049 39.429 63.7024 39.8409 64.2592 40.392C64.8217 40.9432 65.2592 41.6364 65.5717 42.4716C65.8842 43.3011 66.0405 44.2727 66.0405 45.3864V46.3835H54.9865V44.1335H62.6229C62.6229 43.6108 62.5092 43.1477 62.282 42.7443C62.0547 42.3409 61.7393 42.0256 61.3359 41.7983C60.9382 41.5653 60.4751 41.4489 59.9467 41.4489C59.3956 41.4489 58.907 41.5767 58.4808 41.8324C58.0604 42.0824 57.7308 42.4205 57.4922 42.8466C57.2536 43.267 57.1314 43.7358 57.1257 44.2528V46.392C57.1257 47.0398 57.245 47.5994 57.4837 48.071C57.728 48.5426 58.0717 48.9062 58.5149 49.1619C58.9581 49.4176 59.4837 49.5455 60.0916 49.5455C60.495 49.5455 60.8643 49.4886 61.1996 49.375C61.5348 49.2614 61.8217 49.0909 62.0604 48.8636C62.299 48.6364 62.4808 48.358 62.6058 48.0284L65.9638 48.25C65.7933 49.0568 65.4439 49.7614 64.9155 50.3636C64.3928 50.9602 63.7166 51.4261 62.8871 51.7614C62.0632 52.0909 61.1115 52.2557 60.032 52.2557ZM68.4098 52V38.9091H71.9297V41.1932H72.0661C72.3047 40.3807 72.7053 39.767 73.2678 39.3523C73.8303 38.9318 74.478 38.7216 75.2109 38.7216C75.3928 38.7216 75.5888 38.733 75.799 38.7557C76.0092 38.7784 76.1939 38.8097 76.353 38.8494V42.071C76.1825 42.0199 75.9467 41.9744 75.6456 41.9347C75.3445 41.8949 75.0689 41.875 74.8189 41.875C74.2848 41.875 73.8075 41.9915 73.3871 42.2244C72.9723 42.4517 72.6428 42.7699 72.3984 43.179C72.1598 43.5881 72.0405 44.0597 72.0405 44.5938V52H68.4098ZM89.1222 42.642L85.7983 42.8466C85.7415 42.5625 85.6193 42.3068 85.4318 42.0795C85.2443 41.8466 84.9972 41.6619 84.6903 41.5256C84.3892 41.3835 84.0284 41.3125 83.608 41.3125C83.0455 41.3125 82.571 41.4318 82.1847 41.6705C81.7983 41.9034 81.6051 42.2159 81.6051 42.608C81.6051 42.9205 81.7301 43.1847 81.9801 43.4006C82.2301 43.6165 82.6591 43.7898 83.267 43.9205L85.6364 44.3977C86.9091 44.6591 87.858 45.0795 88.483 45.6591C89.108 46.2386 89.4205 47 89.4205 47.9432C89.4205 48.8011 89.1676 49.554 88.6619 50.2017C88.1619 50.8494 87.4744 51.3551 86.5994 51.7188C85.7301 52.0767 84.7273 52.2557 83.5909 52.2557C81.858 52.2557 80.4773 51.8949 79.4489 51.1733C78.4261 50.446 77.8267 49.4574 77.6506 48.2074L81.2216 48.0199C81.3295 48.5483 81.5909 48.9517 82.0057 49.2301C82.4205 49.5028 82.9517 49.6392 83.5994 49.6392C84.2358 49.6392 84.7472 49.517 85.1335 49.2727C85.5256 49.0227 85.7244 48.7017 85.7301 48.3097C85.7244 47.9801 85.5852 47.7102 85.3125 47.5C85.0398 47.2841 84.6193 47.1193 84.0511 47.0057L81.7841 46.554C80.5057 46.2983 79.554 45.8551 78.929 45.2244C78.3097 44.5937 78 43.7898 78 42.8125C78 41.9716 78.2273 41.2472 78.6818 40.6392C79.142 40.0312 79.7869 39.5625 80.6165 39.233C81.4517 38.9034 82.429 38.7386 83.5483 38.7386C85.2017 38.7386 86.5028 39.0881 87.4517 39.7869C88.4063 40.4858 88.9631 41.4375 89.1222 42.642ZM91.7067 52V38.9091H95.3374V52H91.7067ZM93.5305 37.2216C92.9908 37.2216 92.5277 37.0426 92.1413 36.6847C91.7607 36.321 91.5703 35.8864 91.5703 35.3807C91.5703 34.8807 91.7607 34.4517 92.1413 34.0938C92.5277 33.7301 92.9908 33.5483 93.5305 33.5483C94.0703 33.5483 94.5305 33.7301 94.9112 34.0938C95.2976 34.4517 95.4908 34.8807 95.4908 35.3807C95.4908 35.8864 95.2976 36.321 94.9112 36.6847C94.5305 37.0426 94.0703 37.2216 93.5305 37.2216ZM105.209 38.9091V41.6364H97.3253V38.9091H105.209ZM99.1151 35.7727H102.746V47.9773C102.746 48.3125 102.797 48.5739 102.899 48.7614C103.001 48.9432 103.143 49.071 103.325 49.1449C103.513 49.2187 103.729 49.2557 103.973 49.2557C104.143 49.2557 104.314 49.2415 104.484 49.2131C104.655 49.179 104.786 49.1534 104.876 49.1364L105.447 51.8381C105.266 51.8949 105.01 51.9602 104.68 52.0341C104.351 52.1136 103.95 52.1619 103.479 52.179C102.604 52.2131 101.837 52.0966 101.178 51.8295C100.524 51.5625 100.016 51.1477 99.652 50.5852C99.2884 50.0227 99.1094 49.3125 99.1151 48.4545V35.7727ZM109.815 56.9091C109.355 56.9091 108.923 56.8722 108.52 56.7983C108.122 56.7301 107.793 56.642 107.531 56.5341L108.349 53.8239C108.776 53.9545 109.159 54.0256 109.5 54.0369C109.847 54.0483 110.145 53.9688 110.395 53.7983C110.651 53.6278 110.858 53.3381 111.017 52.929L111.23 52.375L106.534 38.9091H110.352L113.062 48.5227H113.199L115.935 38.9091H119.778L114.69 53.4148C114.446 54.1193 114.114 54.733 113.693 55.2557C113.278 55.7841 112.753 56.1903 112.116 56.4744C111.48 56.7642 110.713 56.9091 109.815 56.9091Z" fill="#081E3F"/>
<path d="M9.15341 67.0398C9.04356 66.6951 8.89583 66.3864 8.71023 66.1136C8.52841 65.8371 8.31061 65.6023 8.05682 65.4091C7.80303 65.2121 7.51326 65.0625 7.1875 64.9602C6.86553 64.858 6.51136 64.8068 6.125 64.8068C5.4697 64.8068 4.87879 64.9754 4.35227 65.3125C3.82576 65.6496 3.40909 66.1439 3.10227 66.7955C2.79924 67.4432 2.64773 68.2367 2.64773 69.1761C2.64773 70.1193 2.80114 70.9167 3.10795 71.5682C3.41477 72.2197 3.83523 72.714 4.36932 73.0511C4.90341 73.3883 5.51136 73.5568 6.19318 73.5568C6.82576 73.5568 7.37689 73.428 7.84659 73.1705C8.32008 72.9129 8.68561 72.5492 8.94318 72.0795C9.20455 71.6061 9.33523 71.0492 9.33523 70.4091L9.78977 70.4943H6.46023V69.0455H11.0341V70.3693C11.0341 71.3466 10.8258 72.1951 10.4091 72.9148C9.99621 73.6307 9.42424 74.1837 8.69318 74.5739C7.96591 74.964 7.13258 75.1591 6.19318 75.1591C5.14015 75.1591 4.21591 74.9167 3.42045 74.4318C2.62879 73.947 2.01136 73.2595 1.56818 72.3693C1.125 71.4754 0.903409 70.4148 0.903409 69.1875C0.903409 68.2595 1.0322 67.4261 1.28977 66.6875C1.54735 65.9489 1.90909 65.322 2.375 64.8068C2.8447 64.2879 3.39583 63.892 4.02841 63.6193C4.66477 63.3428 5.35985 63.2045 6.11364 63.2045C6.74242 63.2045 7.32765 63.2973 7.86932 63.483C8.41477 63.6686 8.89962 63.9318 9.32386 64.2727C9.75189 64.6136 10.1061 65.0189 10.3864 65.4886C10.6667 65.9545 10.8561 66.4716 10.9545 67.0398H9.15341ZM13.1264 75V66.2727H14.7685V67.6591H14.8594C15.0185 67.1894 15.2988 66.8201 15.7003 66.5511C16.1056 66.2784 16.5639 66.142 17.0753 66.142C17.1813 66.142 17.3063 66.1458 17.4503 66.1534C17.598 66.161 17.7135 66.1705 17.7969 66.1818V67.8068C17.7287 67.7879 17.6075 67.767 17.4332 67.7443C17.259 67.7178 17.0848 67.7045 16.9105 67.7045C16.509 67.7045 16.151 67.7898 15.8366 67.9602C15.526 68.1269 15.2798 68.3598 15.098 68.6591C14.9162 68.9545 14.8253 69.2917 14.8253 69.6705V75H13.1264ZM21.7287 75.1932C21.1757 75.1932 20.6757 75.0909 20.2287 74.8864C19.7817 74.678 19.4276 74.3769 19.1662 73.983C18.9086 73.589 18.7798 73.1061 18.7798 72.5341C18.7798 72.0417 18.8745 71.6364 19.0639 71.3182C19.2533 71 19.509 70.7481 19.831 70.5625C20.1529 70.3769 20.5128 70.2367 20.9105 70.142C21.3082 70.0473 21.7135 69.9754 22.1264 69.9261C22.6491 69.8655 23.0734 69.8163 23.3991 69.7784C23.7249 69.7367 23.9616 69.6705 24.1094 69.5795C24.2571 69.4886 24.331 69.3409 24.331 69.1364V69.0966C24.331 68.6004 24.1908 68.2159 23.9105 67.9432C23.634 67.6705 23.2211 67.5341 22.6719 67.5341C22.0999 67.5341 21.6491 67.661 21.3196 67.9148C20.9938 68.1648 20.7685 68.4432 20.6435 68.75L19.0469 68.3864C19.2363 67.8561 19.5128 67.428 19.8764 67.1023C20.2438 66.7727 20.6662 66.5341 21.1435 66.3864C21.6207 66.2348 22.1226 66.1591 22.6491 66.1591C22.9976 66.1591 23.367 66.2008 23.7571 66.2841C24.151 66.3636 24.5185 66.5114 24.8594 66.7273C25.2041 66.9432 25.4863 67.2519 25.706 67.6534C25.9257 68.0511 26.0355 68.5682 26.0355 69.2045V75H24.3764V73.8068H24.3082C24.1984 74.0265 24.0336 74.2424 23.8139 74.4545C23.5942 74.6667 23.312 74.8428 22.9673 74.983C22.6226 75.1231 22.2098 75.1932 21.7287 75.1932ZM22.098 73.8295C22.5677 73.8295 22.9692 73.7367 23.3026 73.5511C23.6397 73.3655 23.8954 73.1231 24.0696 72.8239C24.2476 72.5208 24.3366 72.197 24.3366 71.8523V70.7273C24.276 70.7879 24.1586 70.8447 23.9844 70.8977C23.8139 70.947 23.6188 70.9905 23.3991 71.0284C23.1795 71.0625 22.9654 71.0947 22.7571 71.125C22.5488 71.1515 22.3745 71.1742 22.2344 71.1932C21.9048 71.2348 21.6037 71.3049 21.331 71.4034C21.062 71.5019 20.8461 71.6439 20.6832 71.8295C20.5241 72.0114 20.4446 72.2538 20.4446 72.5568C20.4446 72.9773 20.5999 73.2955 20.9105 73.5114C21.2211 73.7235 21.617 73.8295 22.098 73.8295ZM31.5653 75.1705C30.8608 75.1705 30.232 74.9905 29.679 74.6307C29.1297 74.267 28.6979 73.75 28.3835 73.0795C28.0729 72.4053 27.9176 71.5966 27.9176 70.6534C27.9176 69.7102 28.0748 68.9034 28.3892 68.233C28.7074 67.5625 29.143 67.0492 29.696 66.6932C30.2491 66.3371 30.8759 66.1591 31.5767 66.1591C32.1184 66.1591 32.554 66.25 32.8835 66.4318C33.2169 66.6098 33.4744 66.8182 33.6562 67.0568C33.8419 67.2955 33.9858 67.5057 34.0881 67.6875H34.1903V63.3636H35.8892V75H34.2301V73.642H34.0881C33.9858 73.8277 33.8381 74.0398 33.6449 74.2784C33.4555 74.517 33.1941 74.7254 32.8608 74.9034C32.5275 75.0814 32.0956 75.1705 31.5653 75.1705ZM31.9403 73.7216C32.429 73.7216 32.8419 73.5928 33.179 73.3352C33.5199 73.0739 33.7775 72.7121 33.9517 72.25C34.1297 71.7879 34.2188 71.25 34.2188 70.6364C34.2188 70.0303 34.1316 69.5 33.9574 69.0455C33.7831 68.5909 33.5275 68.2367 33.1903 67.983C32.8532 67.7292 32.4366 67.6023 31.9403 67.6023C31.429 67.6023 31.0028 67.7348 30.6619 68C30.321 68.2652 30.0634 68.6269 29.8892 69.0852C29.7188 69.5436 29.6335 70.0606 29.6335 70.6364C29.6335 71.2197 29.7206 71.7443 29.8949 72.2102C30.0691 72.6761 30.3267 73.0455 30.6676 73.3182C31.0123 73.5871 31.4366 73.7216 31.9403 73.7216ZM43.8423 71.3807V66.2727H45.5469V75H43.8764V73.4886H43.7855C43.5848 73.9545 43.2628 74.3428 42.8196 74.6534C42.3802 74.9602 41.8329 75.1136 41.1776 75.1136C40.617 75.1136 40.1207 74.9905 39.6889 74.7443C39.2609 74.4943 38.9238 74.125 38.6776 73.6364C38.4351 73.1477 38.3139 72.5436 38.3139 71.8239V66.2727H40.0128V71.6193C40.0128 72.214 40.1776 72.6875 40.5071 73.0398C40.8366 73.392 41.2647 73.5682 41.7912 73.5682C42.1094 73.5682 42.4257 73.4886 42.7401 73.3295C43.0582 73.1705 43.3215 72.9299 43.5298 72.608C43.742 72.286 43.8461 71.8769 43.8423 71.3807ZM50.3693 75.1932C49.8163 75.1932 49.3163 75.0909 48.8693 74.8864C48.4223 74.678 48.0682 74.3769 47.8068 73.983C47.5492 73.589 47.4205 73.1061 47.4205 72.5341C47.4205 72.0417 47.5152 71.6364 47.7045 71.3182C47.8939 71 48.1496 70.7481 48.4716 70.5625C48.7936 70.3769 49.1534 70.2367 49.5511 70.142C49.9489 70.0473 50.3542 69.9754 50.767 69.9261C51.2898 69.8655 51.714 69.8163 52.0398 69.7784C52.3655 69.7367 52.6023 69.6705 52.75 69.5795C52.8977 69.4886 52.9716 69.3409 52.9716 69.1364V69.0966C52.9716 68.6004 52.8314 68.2159 52.5511 67.9432C52.2746 67.6705 51.8617 67.5341 51.3125 67.5341C50.7405 67.5341 50.2898 67.661 49.9602 67.9148C49.6345 68.1648 49.4091 68.4432 49.2841 68.75L47.6875 68.3864C47.8769 67.8561 48.1534 67.428 48.517 67.1023C48.8845 66.7727 49.3068 66.5341 49.7841 66.3864C50.2614 66.2348 50.7633 66.1591 51.2898 66.1591C51.6383 66.1591 52.0076 66.2008 52.3977 66.2841C52.7917 66.3636 53.1591 66.5114 53.5 66.7273C53.8447 66.9432 54.1269 67.2519 54.3466 67.6534C54.5663 68.0511 54.6761 68.5682 54.6761 69.2045V75H53.017V73.8068H52.9489C52.839 74.0265 52.6742 74.2424 52.4545 74.4545C52.2348 74.6667 51.9527 74.8428 51.608 74.983C51.2633 75.1231 50.8504 75.1932 50.3693 75.1932ZM50.7386 73.8295C51.2083 73.8295 51.6098 73.7367 51.9432 73.5511C52.2803 73.3655 52.536 73.1231 52.7102 72.8239C52.8883 72.5208 52.9773 72.197 52.9773 71.8523V70.7273C52.9167 70.7879 52.7992 70.8447 52.625 70.8977C52.4545 70.947 52.2595 70.9905 52.0398 71.0284C51.8201 71.0625 51.6061 71.0947 51.3977 71.125C51.1894 71.1515 51.0152 71.1742 50.875 71.1932C50.5455 71.2348 50.2443 71.3049 49.9716 71.4034C49.7027 71.5019 49.4867 71.6439 49.3239 71.8295C49.1648 72.0114 49.0852 72.2538 49.0852 72.5568C49.0852 72.9773 49.2405 73.2955 49.5511 73.5114C49.8617 73.7235 50.2576 73.8295 50.7386 73.8295ZM61.0128 66.2727V67.6364H56.2457V66.2727H61.0128ZM57.5241 64.1818H59.223V72.4375C59.223 72.767 59.2723 73.0152 59.3707 73.1818C59.4692 73.3447 59.5961 73.4564 59.7514 73.517C59.9105 73.5739 60.0829 73.6023 60.2685 73.6023C60.4048 73.6023 60.5241 73.5928 60.6264 73.5739C60.7287 73.5549 60.8082 73.5398 60.8651 73.5284L61.1719 74.9318C61.0734 74.9697 60.9332 75.0076 60.7514 75.0455C60.5696 75.0871 60.3423 75.1098 60.0696 75.1136C59.6226 75.1212 59.206 75.0417 58.8196 74.875C58.4332 74.7083 58.1207 74.4508 57.8821 74.1023C57.6435 73.7538 57.5241 73.3163 57.5241 72.7898V64.1818ZM62.892 75V66.2727H64.5909V75H62.892ZM63.75 64.9261C63.4545 64.9261 63.2008 64.8277 62.9886 64.6307C62.7803 64.4299 62.6761 64.1913 62.6761 63.9148C62.6761 63.6345 62.7803 63.3958 62.9886 63.1989C63.2008 62.9981 63.4545 62.8977 63.75 62.8977C64.0455 62.8977 64.2973 62.9981 64.5057 63.1989C64.7178 63.3958 64.8239 63.6345 64.8239 63.9148C64.8239 64.1913 64.7178 64.4299 64.5057 64.6307C64.2973 64.8277 64.0455 64.9261 63.75 64.9261ZM68.5753 69.8182V75H66.8764V66.2727H68.5071V67.6932H68.6151C68.8158 67.2311 69.1302 66.8598 69.5582 66.5795C69.9901 66.2992 70.5336 66.1591 71.1889 66.1591C71.7836 66.1591 72.3045 66.2841 72.7514 66.5341C73.1984 66.7803 73.545 67.1477 73.7912 67.6364C74.0374 68.125 74.1605 68.7292 74.1605 69.4489V75H72.4616V69.6534C72.4616 69.0208 72.2969 68.5265 71.9673 68.1705C71.6378 67.8106 71.1851 67.6307 70.6094 67.6307C70.2154 67.6307 69.8651 67.7159 69.5582 67.8864C69.2552 68.0568 69.0147 68.3068 68.8366 68.6364C68.6624 68.9621 68.5753 69.3561 68.5753 69.8182ZM80.098 78.4545C79.4048 78.4545 78.8082 78.3636 78.3082 78.1818C77.812 78 77.4067 77.7595 77.0923 77.4602C76.7779 77.161 76.5431 76.8333 76.3878 76.4773L77.848 75.875C77.9503 76.0417 78.0866 76.2178 78.2571 76.4034C78.4313 76.5928 78.6662 76.7538 78.9616 76.8864C79.2609 77.0189 79.6454 77.0852 80.1151 77.0852C80.759 77.0852 81.2912 76.928 81.7116 76.6136C82.1321 76.303 82.3423 75.8068 82.3423 75.125V73.4091H82.2344C82.1321 73.5947 81.9844 73.8011 81.7912 74.0284C81.6018 74.2557 81.3404 74.4527 81.0071 74.6193C80.6738 74.786 80.2401 74.8693 79.706 74.8693C79.0166 74.8693 78.3954 74.7083 77.8423 74.3864C77.2931 74.0606 76.8575 73.5814 76.5355 72.9489C76.2173 72.3125 76.0582 71.5303 76.0582 70.6023C76.0582 69.6742 76.2154 68.8788 76.5298 68.2159C76.848 67.553 77.2836 67.0455 77.8366 66.6932C78.3897 66.3371 79.0166 66.1591 79.7173 66.1591C80.259 66.1591 80.6965 66.25 81.0298 66.4318C81.3632 66.6098 81.6226 66.8182 81.8082 67.0568C81.9976 67.2955 82.1435 67.5057 82.2457 67.6875H82.3707V66.2727H84.0355V75.1932C84.0355 75.9432 83.8613 76.5587 83.5128 77.0398C83.1643 77.5208 82.6927 77.8769 82.098 78.108C81.5071 78.339 80.8404 78.4545 80.098 78.4545ZM80.081 73.4602C80.5696 73.4602 80.9825 73.3466 81.3196 73.1193C81.6605 72.8883 81.9181 72.5587 82.0923 72.1307C82.2704 71.6989 82.3594 71.1818 82.3594 70.5795C82.3594 69.9924 82.2723 69.4754 82.098 69.0284C81.9238 68.5814 81.6681 68.233 81.331 67.983C80.9938 67.7292 80.5772 67.6023 80.081 67.6023C79.5696 67.6023 79.1435 67.7348 78.8026 68C78.4616 68.2614 78.2041 68.6174 78.0298 69.0682C77.8594 69.5189 77.7741 70.0227 77.7741 70.5795C77.7741 71.1515 77.8613 71.6534 78.0355 72.0852C78.2098 72.517 78.4673 72.8542 78.8082 73.0966C79.1529 73.339 79.5772 73.4602 80.081 73.4602ZM94.4517 75H90.6847V63.3636H94.571C95.7112 63.3636 96.6903 63.5966 97.5085 64.0625C98.3267 64.5246 98.9536 65.1894 99.3892 66.0568C99.8286 66.9205 100.048 67.9564 100.048 69.1648C100.048 70.3769 99.8267 71.4186 99.3835 72.2898C98.9441 73.161 98.3078 73.8314 97.4744 74.3011C96.6411 74.767 95.6335 75 94.4517 75ZM92.4403 73.4659H94.3551C95.2415 73.4659 95.9782 73.2992 96.5653 72.9659C97.1525 72.6288 97.5919 72.142 97.8835 71.5057C98.1752 70.8655 98.321 70.0852 98.321 69.1648C98.321 68.2519 98.1752 67.4773 97.8835 66.8409C97.5956 66.2045 97.1657 65.7216 96.5938 65.392C96.0218 65.0625 95.3116 64.8977 94.4631 64.8977H92.4403V73.4659ZM105.857 75.1761C104.997 75.1761 104.256 74.9924 103.635 74.625C103.018 74.2538 102.54 73.733 102.203 73.0625C101.87 72.3883 101.703 71.5985 101.703 70.6932C101.703 69.7992 101.87 69.0114 102.203 68.3295C102.54 67.6477 103.01 67.1155 103.612 66.733C104.218 66.3504 104.927 66.1591 105.737 66.1591C106.23 66.1591 106.707 66.2405 107.169 66.4034C107.631 66.5663 108.046 66.822 108.413 67.1705C108.781 67.5189 109.071 67.9716 109.283 68.5284C109.495 69.0814 109.601 69.7538 109.601 70.5455V71.1477H102.663V69.875H107.936C107.936 69.428 107.845 69.0322 107.663 68.6875C107.482 68.339 107.226 68.0644 106.896 67.8636C106.571 67.6629 106.188 67.5625 105.749 67.5625C105.271 67.5625 104.855 67.6799 104.499 67.9148C104.146 68.1458 103.874 68.4489 103.68 68.8239C103.491 69.1951 103.396 69.5985 103.396 70.0341V71.0284C103.396 71.6117 103.499 72.108 103.703 72.517C103.911 72.9261 104.201 73.2386 104.572 73.4545C104.944 73.6667 105.377 73.7727 105.874 73.7727C106.196 73.7727 106.489 73.7273 106.754 73.6364C107.019 73.5417 107.249 73.4015 107.442 73.2159C107.635 73.0303 107.783 72.8011 107.885 72.5284L109.493 72.8182C109.364 73.2917 109.133 73.7064 108.8 74.0625C108.47 74.4148 108.055 74.6894 107.555 74.8864C107.059 75.0795 106.493 75.1761 105.857 75.1761ZM115.162 75.1761C114.317 75.1761 113.59 74.9848 112.98 74.6023C112.374 74.2159 111.908 73.6837 111.582 73.0057C111.257 72.3277 111.094 71.5511 111.094 70.6761C111.094 69.7898 111.26 69.0076 111.594 68.3295C111.927 67.6477 112.397 67.1155 113.003 66.733C113.609 66.3504 114.323 66.1591 115.145 66.1591C115.808 66.1591 116.399 66.2822 116.918 66.5284C117.437 66.7708 117.855 67.1117 118.173 67.5511C118.495 67.9905 118.687 68.5038 118.747 69.0909H117.094C117.003 68.6818 116.795 68.3295 116.469 68.0341C116.147 67.7386 115.715 67.5909 115.173 67.5909C114.7 67.5909 114.285 67.7159 113.929 67.9659C113.577 68.2121 113.302 68.5644 113.105 69.0227C112.908 69.4773 112.81 70.0152 112.81 70.6364C112.81 71.2727 112.906 71.822 113.099 72.2841C113.293 72.7462 113.565 73.1042 113.918 73.358C114.274 73.6117 114.692 73.7386 115.173 73.7386C115.495 73.7386 115.787 73.6799 116.048 73.5625C116.313 73.4413 116.535 73.2689 116.713 73.0455C116.895 72.822 117.022 72.553 117.094 72.2386H118.747C118.687 72.803 118.503 73.3068 118.196 73.75C117.889 74.1932 117.478 74.5417 116.963 74.7955C116.452 75.0492 115.851 75.1761 115.162 75.1761ZM124.776 75V73.7273L128.713 69.6477C129.134 69.2045 129.48 68.8163 129.753 68.483C130.029 68.1458 130.236 67.8258 130.372 67.5227C130.509 67.2197 130.577 66.8977 130.577 66.5568C130.577 66.1705 130.486 65.8371 130.304 65.5568C130.122 65.2727 129.874 65.0549 129.56 64.9034C129.245 64.7481 128.891 64.6705 128.497 64.6705C128.08 64.6705 127.717 64.7557 127.406 64.9261C127.096 65.0966 126.857 65.3371 126.69 65.6477C126.524 65.9583 126.44 66.322 126.44 66.7386H124.764C124.764 66.0303 124.927 65.411 125.253 64.8807C125.579 64.3504 126.026 63.9394 126.594 63.6477C127.162 63.3523 127.808 63.2045 128.531 63.2045C129.262 63.2045 129.906 63.3504 130.463 63.642C131.024 63.9299 131.461 64.3239 131.776 64.8239C132.09 65.3201 132.247 65.8807 132.247 66.5057C132.247 66.9375 132.166 67.3598 132.003 67.7727C131.844 68.1856 131.565 68.6458 131.168 69.1534C130.77 69.6572 130.217 70.2689 129.509 70.9886L127.196 73.4091V73.4943H132.435V75H124.776ZM138.639 75.1932C137.741 75.1894 136.974 74.9527 136.338 74.483C135.702 74.0133 135.215 73.3295 134.878 72.4318C134.541 71.5341 134.372 70.4527 134.372 69.1875C134.372 67.9261 134.541 66.8485 134.878 65.9545C135.219 65.0606 135.707 64.3788 136.344 63.9091C136.984 63.4394 137.749 63.2045 138.639 63.2045C139.529 63.2045 140.293 63.4413 140.929 63.9148C141.565 64.3845 142.052 65.0663 142.389 65.9602C142.73 66.8504 142.901 67.9261 142.901 69.1875C142.901 70.4564 142.732 71.5398 142.395 72.4375C142.058 73.3314 141.571 74.0152 140.935 74.4886C140.298 74.9583 139.533 75.1932 138.639 75.1932ZM138.639 73.6761C139.427 73.6761 140.043 73.2917 140.486 72.5227C140.933 71.7538 141.156 70.642 141.156 69.1875C141.156 68.2216 141.054 67.4053 140.849 66.7386C140.649 66.0682 140.359 65.5606 139.98 65.2159C139.605 64.8674 139.158 64.6932 138.639 64.6932C137.855 64.6932 137.24 65.0795 136.793 65.8523C136.346 66.625 136.12 67.7367 136.116 69.1875C136.116 70.1572 136.217 70.9773 136.418 71.6477C136.622 72.3144 136.912 72.8201 137.287 73.1648C137.662 73.5057 138.113 73.6761 138.639 73.6761ZM144.916 75V73.7273L148.854 69.6477C149.274 69.2045 149.621 68.8163 149.893 68.483C150.17 68.1458 150.376 67.8258 150.513 67.5227C150.649 67.2197 150.717 66.8977 150.717 66.5568C150.717 66.1705 150.626 65.8371 150.445 65.5568C150.263 65.2727 150.015 65.0549 149.7 64.9034C149.386 64.7481 149.032 64.6705 148.638 64.6705C148.221 64.6705 147.857 64.7557 147.547 64.9261C147.236 65.0966 146.998 65.3371 146.831 65.6477C146.664 65.9583 146.581 66.322 146.581 66.7386H144.905C144.905 66.0303 145.068 65.411 145.393 64.8807C145.719 64.3504 146.166 63.9394 146.734 63.6477C147.303 63.3523 147.948 63.2045 148.672 63.2045C149.403 63.2045 150.047 63.3504 150.604 63.642C151.164 63.9299 151.602 64.3239 151.916 64.8239C152.231 65.3201 152.388 65.8807 152.388 66.5057C152.388 66.9375 152.306 67.3598 152.143 67.7727C151.984 68.1856 151.706 68.6458 151.308 69.1534C150.911 69.6572 150.357 70.2689 149.649 70.9886L147.337 73.4091V73.4943H152.575V75H144.916ZM154.234 72.7273V71.3068L159.263 63.3636H160.382V65.4545H159.672L156.075 71.1477V71.2386H162.967V72.7273H154.234ZM159.751 75V72.2955L159.763 71.6477V63.3636H161.428V75H159.751Z" fill="black"/>
</svg>
